<svg xmlns="http://www.w3.org/2000/svg" width="1024" height="1024" viewBox="0 0 1024 1024" transform="matrix(1, 0, 0, 1, 0, 0)">
<g>
<path d="M 535.02 825.79 C532.46,824.40 529.03,821.26 527.02,818.46 L 523.50 813.57 L 522.70 783.03 C521.65,742.87 522.11,733.33 525.47,726.48 C528.58,720.12 535.39,714.51 542.45,712.50 C546.46,711.36 560.87,710.90 612.55,710.28 L 677.61 709.50 L 685.05 705.82 C697.61,699.60 703.83,692.89 707.83,681.24 C709.25,677.11 709.52,667.95 709.98,610.50 L 710.50 544.50 L 712.81 539.39 C715.69,533.04 721.02,527.75 727.38,524.95 C732.08,522.87 733.68,522.79 771.38,522.65 L 810.50 522.50 L 815.57 525.31 C821.17,528.42 823.66,531.86 825.37,538.85 C826.19,542.23 826.34,568.70 825.90,636.00 C825.24,737.17 825.46,733.54 819.13,750.83 C813.21,767.01 803.17,781.80 788.64,795.75 C778.67,805.32 773.17,809.04 759.55,815.40 C735.50,826.64 733.98,826.78 626.50,827.57 L 539.50 828.21 ZM 382.00 826.95 C292.73,826.34 293.58,826.39 274.36,819.53 C258.40,813.82 243.34,803.57 227.82,787.84 C217.66,777.56 209.45,763.51 204.61,748.16 C199.27,731.25 199.07,727.35 198.38,629.81 L 197.75 539.50 L 200.13 536.11 C201.43,534.24 205.14,530.64 208.37,528.11 L 214.24 523.50 L 249.83 522.66 C269.40,522.20 287.83,522.12 290.79,522.49 C295.34,523.06 297.13,523.97 302.34,528.35 C306.11,531.52 309.42,535.38 310.87,538.31 L 313.25 543.08 L 313.72 605.29 C314.22,672.17 314.40,674.64 319.59,685.61 C323.20,693.22 331.59,701.99 338.56,705.40 C341.70,706.93 348.60,709.08 353.88,710.16 C362.90,712.00 367.16,712.11 422.00,711.86 C476.29,711.62 485.64,711.43 491.29,715.90 C492.67,716.99 493.84,718.36 495.38,720.08 C502.86,728.39 503.00,729.34 503.00,770.64 C503.00,804.46 502.86,807.29 501.00,812.26 C498.59,818.72 494.04,823.36 488.00,825.53 C482.25,827.59 479.86,827.62 382.00,826.95 ZM 213.16 500.93 C208.54,499.50 201.28,491.77 199.97,486.88 C199.23,484.14 199.01,453.62 199.27,388.70 C199.68,283.84 199.38,288.69 206.68,271.01 C212.00,258.15 219.68,247.22 232.29,234.58 C247.11,219.72 261.63,210.47 279.59,204.44 C294.03,199.59 301.88,199.19 397.14,198.43 L 485.78 197.71 L 490.28 199.89 C495.49,202.42 499.40,207.56 500.99,214.00 C501.74,217.02 502.00,231.15 501.80,257.00 C501.46,300.04 501.75,298.25 494.00,306.00 C486.86,313.14 491.05,312.71 421.54,313.41 C382.10,313.80 357.07,314.44 354.54,315.11 C352.32,315.69 345.98,317.93 340.46,320.08 C328.89,324.58 324.80,328.09 320.17,337.50 C314.45,349.12 314.64,346.61 314.05,417.00 L 313.50 482.50 L 311.17 487.23 C309.89,489.83 307.12,493.32 305.01,494.99 C297.17,501.20 297.13,501.20 255.00,501.60 C230.21,501.84 215.31,501.60 213.16,500.93 ZM 730.32 501.07 C724.89,499.72 715.13,490.99 712.92,485.50 C712.01,483.25 711.76,467.55 711.91,422.50 C712.14,356.36 711.89,352.77 706.08,340.36 C700.63,328.72 691.50,321.20 677.00,316.41 C671.99,314.75 665.77,314.54 607.50,314.05 C548.78,313.54 543.17,313.35 539.50,311.70 C531.64,308.18 528.34,305.13 525.36,298.69 L 522.50 292.50 L 522.50 213.36 L 525.11 209.41 C526.55,207.24 529.66,204.12 532.03,202.48 L 536.33 199.50 L 630.92 199.51 C725.21,199.51 725.53,199.52 735.64,201.75 C754.45,205.91 768.65,213.28 787.60,228.71 C796.73,236.15 798.14,237.87 809.33,255.29 C818.69,269.84 823.19,283.18 824.99,301.62 C826.28,314.90 826.30,483.39 825.01,488.03 C823.90,492.02 818.01,498.23 813.50,500.17 C810.06,501.64 735.88,502.45 730.32,501.07 ZM 528.00 811.26 L 536.85 820.11 L 632.17 819.81 C718.57,819.53 727.97,819.34 732.50,817.81 C735.25,816.88 740.88,815.11 745.00,813.89 C759.18,809.68 774.33,801.05 785.65,790.74 C789.97,786.81 793.95,782.86 794.50,781.97 C795.05,781.08 798.04,776.56 801.15,771.92 C809.82,758.99 813.28,750.58 817.79,731.50 L 820.38 720.50 L 820.74 632.50 C820.94,584.10 820.84,543.06 820.52,541.31 C820.19,539.55 818.01,536.00 815.67,533.41 L 811.40 528.70 L 774.89 528.27 C728.70,527.72 724.14,528.60 719.86,538.83 C718.79,541.40 717.48,544.28 716.95,545.24 C716.38,546.29 716.00,571.11 716.00,607.92 C716.00,672.00 715.84,674.63 711.32,686.74 C709.77,690.88 708.78,692.15 699.02,702.54 C692.39,709.58 685.76,712.50 670.50,715.11 C667.75,715.58 638.28,716.01 605.00,716.07 C545.78,716.18 544.43,716.23 541.00,718.25 C535.74,721.35 531.01,726.10 529.42,729.87 C528.27,732.59 528.00,740.78 528.00,772.25 L 528.00 811.26 ZM 306.80 819.99 C312.69,820.38 354.85,820.73 400.50,820.77 C478.73,820.84 485.62,820.86 490.54,817.76 C491.04,817.45 491.51,817.11 492.03,816.73 L 494.49 814.97 L 495.30 780.73 C496.25,740.27 495.98,733.12 493.22,726.88 C491.62,723.26 490.23,721.81 486.75,720.12 C482.39,718.01 481.13,717.96 415.16,717.32 C378.22,716.97 348.00,716.34 348.00,715.93 C348.00,715.52 346.05,714.53 343.68,713.71 C337.99,711.78 322.97,701.94 319.62,697.96 C315.01,692.49 312.06,686.55 310.14,678.91 C308.45,672.22 308.21,665.28 307.62,607.64 C306.98,545.46 306.90,543.65 304.83,538.83 C303.07,534.74 301.82,533.42 297.60,531.21 L 292.50 528.53 L 252.92 528.18 L 213.34 527.83 L 211.65 530.41 C210.72,531.84 209.27,533.00 208.43,533.00 C207.59,533.00 206.03,534.91 204.97,537.25 C203.11,541.34 203.05,544.61 203.09,626.00 C203.15,725.31 203.34,728.20 211.17,747.47 C213.41,752.99 215.67,758.99 216.19,760.81 C216.71,762.64 217.95,764.95 218.95,765.95 C219.95,766.95 222.58,770.41 224.80,773.63 C231.17,782.91 238.12,790.58 245.46,796.43 C254.61,803.72 273.51,813.30 283.00,815.46 C287.12,816.39 291.76,817.64 293.30,818.22 C294.84,818.81 300.92,819.60 306.80,819.99 ZM 219.50 494.07 C224.45,494.40 243.18,494.75 261.13,494.84 C289.06,494.98 294.31,494.77 297.59,493.40 C302.03,491.54 303.30,490.17 306.31,484.00 C308.49,479.53 308.50,479.13 308.71,415.00 L 308.93 350.50 L 311.64 342.25 C313.13,337.71 314.71,334.00 315.15,334.00 C315.58,334.00 317.71,331.60 319.87,328.67 C325.98,320.41 332.08,315.01 338.56,312.13 L 344.50 309.50 L 412.10 309.00 C459.79,308.65 480.11,308.17 481.10,307.38 C481.87,306.76 484.14,305.73 486.14,305.09 C488.54,304.32 490.76,302.51 492.64,299.80 L 495.50 295.68 L 496.00 257.09 C496.27,235.86 496.19,216.93 495.80,215.00 C495.36,212.77 493.64,210.13 491.07,207.73 L 487.04 203.97 L 395.27 204.34 C319.83,204.64 302.17,204.97 296.00,206.17 C291.88,206.98 287.83,207.94 287.00,208.30 C286.17,208.67 283.30,209.16 280.61,209.40 C277.92,209.63 274.54,210.71 273.08,211.78 C269.40,214.50 262.38,218.00 260.59,218.00 C259.77,218.00 258.74,218.59 258.30,219.30 C257.86,220.02 255.73,221.68 253.57,223.00 C244.48,228.52 231.13,241.17 224.16,250.86 C220.47,256.00 209.92,276.51 208.15,282.00 C207.53,283.92 206.85,287.30 206.63,289.50 C206.41,291.70 205.99,294.17 205.70,295.00 C205.41,295.83 204.91,339.08 204.60,391.11 C204.04,484.53 204.06,485.75 206.02,487.52 C207.11,488.50 208.00,489.89 208.00,490.60 C208.00,492.79 210.18,493.45 219.50,494.07 ZM 742.00 494.07 C749.42,494.38 768.41,494.72 784.18,494.82 L 812.87 495.00 L 820.00 486.29 L 819.96 307.50 L 817.06 292.88 C813.69,275.88 809.83,265.86 802.32,254.65 C799.40,250.27 797.00,246.35 797.00,245.93 C797.00,243.55 776.27,225.19 769.97,222.00 C767.51,220.75 765.28,219.42 765.00,219.03 C764.72,218.64 762.95,217.80 761.06,217.15 C759.18,216.50 756.93,215.36 756.06,214.61 C754.23,213.00 740.66,208.96 726.50,205.80 C716.66,203.60 715.12,203.56 632.00,203.20 C549.33,202.85 534.00,203.29 534.00,206.01 C534.00,206.47 532.92,208.13 531.61,209.69 L 529.21 212.54 L 528.68 250.92 C528.18,287.14 528.25,289.60 530.08,294.47 C532.13,299.97 535.90,304.27 540.02,305.82 C541.44,306.36 570.63,307.09 607.02,307.49 C667.58,308.17 671.86,308.33 677.50,310.20 C697.60,316.86 709.42,327.92 713.07,343.50 C713.71,346.25 714.84,349.85 715.58,351.50 C716.65,353.88 716.98,367.53 717.21,418.00 L 717.50 481.50 L 719.84 485.59 C723.71,492.34 726.52,493.42 742.00,494.07 Z" fill="#c5c5c5"/>
<path d="M 219.50 494.07 C210.18,493.45 208.00,492.79 208.00,490.60 C208.00,489.89 207.11,488.50 206.02,487.52 C204.06,485.75 204.04,484.53 204.60,391.11 C204.65,382.23 204.71,373.61 204.78,365.40 C204.72,373.40 204.66,381.80 204.61,390.45 C204.09,476.40 204.19,484.55 205.68,486.20 C206.58,487.19 207.47,488.00 207.67,488.00 C207.87,488.00 208.01,444.56 207.98,391.47 L 207.93 294.95 L 210.46 286.92 C213.43,277.55 213.44,277.38 211.56,276.66 C210.95,276.43 210.20,277.23 209.47,278.67 C210.92,275.31 213.22,270.59 215.63,265.92 C214.07,269.22 213.00,271.96 213.00,272.98 C213.00,276.58 215.74,275.20 216.43,271.25 C217.25,266.51 219.01,262.00 220.03,262.00 C220.46,262.00 222.26,259.41 224.04,256.25 C230.01,245.64 250.82,226.21 262.73,220.13 C270.37,216.24 286.24,210.97 294.83,209.47 C301.76,208.26 317.04,208.00 380.47,208.00 C462.62,208.00 488.31,207.42 487.70,205.59 C487.44,204.81 461.17,204.51 395.92,204.55 C369.68,204.56 350.60,204.60 336.57,204.69 C350.68,204.55 369.64,204.44 395.27,204.34 L 487.04 203.97 L 491.07 207.73 C493.64,210.13 495.36,212.77 495.80,215.00 C496.19,216.93 496.27,235.86 496.00,257.09 L 495.50 295.68 L 492.64 299.80 C490.76,302.51 488.54,304.32 486.14,305.09 C484.14,305.73 481.87,306.76 481.10,307.38 C480.11,308.17 459.79,308.65 412.10,309.00 L 344.50 309.50 L 338.56 312.13 C332.08,315.01 325.98,320.41 319.87,328.67 C317.71,331.60 315.58,334.00 315.15,334.00 C314.71,334.00 313.13,337.71 311.64,342.25 L 308.93 350.50 L 308.71 415.00 C308.50,479.13 308.49,479.53 306.31,484.00 C303.30,490.17 302.03,491.54 297.59,493.40 C294.31,494.77 289.06,494.98 261.13,494.84 C243.18,494.75 224.45,494.40 219.50,494.07 ZM 281.62 209.30 C283.99,209.04 286.28,208.62 287.00,208.30 C287.83,207.94 291.88,206.98 296.00,206.17 C296.66,206.04 297.46,205.92 298.45,205.81 C297.72,205.91 297.08,206.01 296.50,206.12 C292.10,206.96 287.83,207.95 287.00,208.31 C286.28,208.62 283.99,209.04 281.62,209.30 ZM 223.96 251.14 C224.03,251.04 224.10,250.95 224.16,250.86 C226.14,248.11 228.62,245.13 231.38,242.14 C228.62,245.13 226.14,248.11 224.16,250.86 C224.10,250.95 224.03,251.04 223.96,251.14 ZM 207.92 282.76 C208.00,282.49 208.08,282.23 208.15,282.00 C208.17,281.96 208.18,281.92 208.19,281.88 C208.10,282.17 208.01,282.46 207.92,282.76 Z" fill="#c5c5c5"/>
<path d="M 213.00 272.98 C213.00,270.40 219.80,256.93 224.16,250.86 C231.12,241.18 244.48,228.52 253.57,223.00 C255.73,221.68 257.86,220.02 258.30,219.30 C258.74,218.59 259.77,218.00 260.59,218.00 C262.38,218.00 269.40,214.50 273.08,211.78 C274.54,210.71 277.92,209.63 280.61,209.40 C283.30,209.16 286.17,208.67 287.00,208.31 C287.83,207.95 292.10,206.96 296.50,206.12 C303.30,204.82 318.21,204.59 395.92,204.55 C461.17,204.51 487.44,204.81 487.70,205.59 C488.31,207.42 462.62,208.00 380.47,208.00 C317.04,208.00 301.76,208.26 294.83,209.47 C286.24,210.97 270.37,216.24 262.73,220.13 C250.82,226.21 230.01,245.64 224.04,256.25 C222.26,259.41 220.46,262.00 220.03,262.00 C219.01,262.00 217.25,266.51 216.43,271.25 C215.74,275.20 213.00,276.58 213.00,272.98 ZM 205.68 486.20 C204.19,484.55 204.09,476.40 204.61,390.45 C204.92,338.78 205.41,295.83 205.70,295.00 C205.99,294.17 206.41,291.70 206.63,289.50 C207.28,282.88 209.92,276.03 211.56,276.66 C213.44,277.38 213.43,277.55 210.46,286.92 L 207.93 294.95 L 207.98 391.47 C208.01,444.56 207.87,488.00 207.67,488.00 C207.47,488.00 206.58,487.19 205.68,486.20 Z" fill="#c5c5c5"/>
<path d="M 742.00 494.07 C726.52,493.42 723.71,492.34 719.84,485.59 L 717.50 481.50 L 717.21 418.00 C716.98,367.53 716.65,353.88 715.58,351.50 C714.84,349.85 713.71,346.25 713.07,343.50 C709.42,327.92 697.60,316.86 677.50,310.20 C671.86,308.33 667.58,308.17 607.02,307.49 C570.63,307.09 541.44,306.36 540.02,305.82 C535.90,304.27 532.13,299.97 530.08,294.47 C528.25,289.60 528.18,287.14 528.68,250.92 L 529.21 212.54 L 531.61 209.69 C532.92,208.13 534.00,206.47 534.00,206.01 C534.00,203.29 549.33,202.85 632.00,203.20 C715.12,203.56 716.66,203.60 726.50,205.80 C740.66,208.96 754.23,213.00 756.06,214.61 C756.93,215.36 759.18,216.50 761.06,217.15 C762.95,217.80 764.72,218.64 765.00,219.03 C765.28,219.42 767.51,220.75 769.97,222.00 C776.27,225.19 797.00,243.55 797.00,245.93 C797.00,246.35 799.40,250.27 802.32,254.65 C809.83,265.86 813.69,275.88 817.06,292.88 L 819.96 307.50 L 820.00 486.29 L 812.87 495.00 L 784.18 494.82 C768.41,494.72 749.42,494.38 742.00,494.07 Z" fill="#c5c5c5"/>
<path d="M 306.80 819.99 C300.92,819.60 294.84,818.81 293.30,818.22 C291.76,817.64 287.12,816.39 283.00,815.46 C273.51,813.30 254.61,803.72 245.46,796.43 C238.12,790.58 231.17,782.91 224.80,773.63 C222.58,770.41 219.95,766.95 218.95,765.95 C217.95,764.95 216.71,762.64 216.19,760.81 C215.67,758.99 213.41,752.99 211.17,747.47 C203.34,728.20 203.15,725.31 203.09,626.00 C203.05,544.61 203.11,541.34 204.97,537.25 C206.03,534.91 207.59,533.00 208.43,533.00 C209.27,533.00 210.72,531.84 211.65,530.41 L 213.34 527.83 L 252.92 528.18 L 292.50 528.53 L 297.60 531.21 C301.82,533.42 303.07,534.74 304.83,538.83 C306.90,543.65 306.98,545.46 307.62,607.64 C308.21,665.28 308.45,672.22 310.14,678.91 C312.06,686.55 315.01,692.49 319.62,697.96 C322.97,701.94 337.99,711.78 343.68,713.71 C346.05,714.53 348.00,715.52 348.00,715.93 C348.00,716.34 378.22,716.97 415.16,717.32 C481.13,717.96 482.39,718.01 486.75,720.12 C490.23,721.81 491.62,723.26 493.22,726.88 C495.98,733.12 496.25,740.27 495.30,780.73 L 494.49 814.97 L 492.03 816.73 C491.51,817.11 491.04,817.45 490.54,817.76 C485.62,820.86 478.73,820.84 400.50,820.77 C354.85,820.73 312.69,820.38 306.80,819.99 Z" fill="#c5c5c5"/>
<path d="M 534.03 817.29 L 528.00 811.26 L 528.00 772.25 C528.00,740.78 528.27,732.59 529.42,729.87 C531.01,726.10 535.74,721.35 541.00,718.25 C544.43,716.23 545.78,716.18 605.00,716.07 C638.28,716.01 667.75,715.58 670.50,715.11 C685.76,712.50 692.39,709.58 699.02,702.54 C708.78,692.15 709.77,690.88 711.32,686.74 C715.84,674.63 716.00,672.00 716.00,607.92 C716.00,571.11 716.38,546.29 716.95,545.24 C717.48,544.28 718.79,541.40 719.86,538.83 C724.14,528.60 728.70,527.72 774.89,528.27 L 803.31 528.60 C803.11,528.72 803.00,528.86 803.00,529.00 C803.00,529.55 804.30,530.00 805.89,530.00 C808.14,530.00 808.92,530.56 809.41,532.48 C809.78,533.98 810.98,535.21 812.41,535.57 C814.31,536.04 814.92,537.02 815.39,540.33 C816.49,548.07 815.23,728.13 814.04,733.38 C812.61,739.68 811.30,742.05 809.61,741.40 C808.60,741.02 808.06,742.38 807.54,746.69 C807.16,749.89 806.15,755.30 805.31,758.72 C803.99,764.07 803.47,764.91 801.64,764.72 C799.82,764.53 799.52,764.99 799.65,767.75 C799.73,769.54 799.42,771.00 798.96,771.00 C798.51,771.00 797.85,771.90 797.50,773.00 C797.15,774.11 795.99,775.00 794.88,775.00 C793.56,775.00 792.41,776.16 791.45,778.48 C790.65,780.39 788.70,782.62 787.12,783.44 C785.55,784.25 784.01,785.84 783.72,786.97 C783.42,788.10 781.60,789.69 779.66,790.50 C777.73,791.30 775.86,792.88 775.50,793.99 C775.15,795.11 773.43,796.74 771.68,797.63 C769.93,798.51 767.59,800.07 766.47,801.08 C763.80,803.52 757.57,805.66 750.62,806.53 C746.92,806.99 745.00,807.69 745.00,808.58 C745.00,810.06 738.26,812.32 728.05,814.26 C723.12,815.19 698.35,815.50 627.75,815.50 C551.70,815.50 534.87,815.56 534.03,817.29 ZM 535.75 818.95 C536.95,819.67 567.47,819.92 632.50,819.75 C718.64,819.52 727.96,819.34 732.49,817.81 C727.96,819.34 718.53,819.53 632.17,819.81 L 536.85 820.11 L 535.59 818.86 C535.64,818.89 535.70,818.92 535.75,818.95 ZM 810.15 528.68 L 811.40 528.70 L 815.67 533.41 C816.27,534.07 816.86,534.80 817.41,535.55 C816.74,534.69 815.97,533.81 815.13,532.94 C812.89,530.62 811.49,529.35 810.15,528.68 ZM 820.50 541.22 C820.50,541.25 820.51,541.28 820.52,541.31 C820.84,543.06 820.94,584.10 820.74,632.50 C820.94,584.37 820.83,543.47 820.50,541.22 Z" fill="#c5c5c5"/>
<path d="M 535.75 818.95 C530.15,815.59 532.52,815.50 627.75,815.50 C698.35,815.50 723.12,815.19 728.05,814.26 C738.26,812.32 745.00,810.06 745.00,808.58 C745.00,807.69 746.92,806.99 750.62,806.53 C757.57,805.66 763.80,803.52 766.47,801.08 C767.59,800.07 769.93,798.51 771.68,797.63 C773.43,796.74 775.15,795.11 775.50,793.99 C775.86,792.88 777.73,791.30 779.66,790.50 C781.60,789.69 783.42,788.10 783.72,786.97 C784.01,785.84 785.55,784.25 787.12,783.44 C788.70,782.62 790.65,780.39 791.45,778.48 C792.41,776.16 793.56,775.00 794.88,775.00 C795.99,775.00 797.15,774.11 797.50,773.00 C797.85,771.90 798.51,771.00 798.96,771.00 C799.42,771.00 799.73,769.54 799.65,767.75 C799.52,764.99 799.82,764.53 801.64,764.72 C803.47,764.91 803.99,764.07 805.31,758.72 C806.15,755.30 807.16,749.89 807.54,746.69 C808.06,742.38 808.60,741.02 809.61,741.40 C811.30,742.05 812.61,739.68 814.04,733.38 C815.23,728.13 816.49,548.07 815.39,540.33 C814.92,537.02 814.31,536.04 812.41,535.57 C810.98,535.21 809.78,533.98 809.41,532.48 C808.92,530.56 808.14,530.00 805.89,530.00 C804.30,530.00 803.00,529.55 803.00,529.00 C803.00,528.45 804.66,528.00 806.68,528.00 C809.79,528.00 811.12,528.78 815.13,532.94 C818.09,536.01 820.12,539.13 820.49,541.19 C820.83,543.01 820.94,584.10 820.74,632.50 L 820.38 720.50 L 817.79 731.50 C813.28,750.58 809.82,758.99 801.15,771.92 C798.04,776.56 795.05,781.08 794.50,781.97 C793.95,782.86 789.97,786.81 785.65,790.74 C774.33,801.05 759.18,809.68 745.00,813.89 C740.88,815.11 735.25,816.88 732.50,817.81 C727.96,819.34 718.68,819.52 632.50,819.75 C567.47,819.92 536.95,819.67 535.75,818.95 Z" fill="#c5c5c5"/>
</g>
</svg>