<svg xmlns="http://www.w3.org/2000/svg" width="1024" height="1024" xmlns:v="https://vecta.io/nano"><path fill="#a98c28" d="M740.888 522.662l2.29-.035 7.435-.068 2.584-.021q6.767-.054 13.534-.073l13.91-.144 10.76-.063q2.563-.011 5.125-.06c9.136-.158 16.306-.073 23.718 6.004 4.348 4.452 5.048 8.783 5.756 14.798l1 1c.125 3 .125 3 0 6l-1 1c-.1 2.268-.13 4.538-.131 6.808l-.007 2.184q-.007 3.65-.004 7.3l-.01 5.212q-.012 5.632-.017 11.263-.01 8.922-.041 17.845l-.019 6.11-.01 3.093-.087 41.556a8738 8738 0 0 1-.07 28.007l-.026 14.81q.005 6.988-.037 13.975a611 611 0 0 0 0 5.093c.12 31.151-12.43 56.942-33.978 78.744l-1.474 1.501c-8.303 8.405-17.026 15.053-27.987 19.604-2.04.868-3.96 1.853-5.914 2.895-11.24 5.675-23.268 7.968-35.72 8.754-2.469.098-2.469.098-4.468 1.246-2.313.106-4.629.144-6.944.154l-2.191.013q-3.653.019-7.305.026l-5.223.025-17.189.055-5.915.017q-12.303.033-24.608.051-17.636.023-35.27.107-12.398.056-24.796.063l-14.81.048q-6.97.044-13.941.025-2.555 0-5.108.025c-16.704.164-16.704.164-22.7-5.609-5.578-5.633-7.3-10.004-7.306-17.854l-.026-2.387a1162 1162 0 0 1-.04-7.806l-.026-5.44a3192 3192 0 0 1-.028-11.41l-.088-14.579-.038-11.242q-.006-2.686-.038-5.372c-.116-10.776-.017-17.917 7.688-26.152l1.965-1.633 1.972-1.68c8.202-6.033 18.563-5.739 28.324-5.716l3.621-.016q4.872-.018 9.744-.019l10.252-.04 30.439-.101 23.69-.083q5.09-.029 10.18-.029l11.356-.04 3.357.014c10.402-.097 18.51-2.423 27.002-8.415l2.063-1.305c9.26-6.209 13.297-16.169 15.937-26.695.508-4.397.526-8.73.482-13.153l.012-3.804q.01-4.056-.008-8.112l.004-12.852.01-27.266.017-29.48q.02-6.376-.013-12.753l.014-9.815-.035-3.529c.06-8.121 1.435-14.361 6.552-20.795l2.028-1.878 2.035-1.934c5.903-5.055 12.234-5.926 19.79-5.967"/><path fill="#942a27" d="M223.487 522.694l2.269-.026 7.416-.04 5.172-.026q5.422-.024 10.843-.028l13.853-.088 10.687-.038a519 519 0 0 0 5.104-.038c16.383-.185 16.383-.185 23.169 5.59l2.426 2.027 1.886 1.91 1.926 1.903c5.255 6.443 5.19 12.23 5.147 20.217l.016 3.668q.015 3.938.01 7.877l.028 12.487.061 26.536.07 28.592q.028 6.189.016 12.379l.03 9.57-.02 3.411c.117 15.1 4.422 29.066 14.994 40.08 8.183 7.547 18.386 11.295 29.336 12.097C360 711 360 711 361 712c3.094.1 6.167.136 9.261.13l2.947.005q4.847.004 9.694-.002l6.708.003q7.04.001 14.08-.006 9.042-.006 18.082.004 6.93.004 13.859 0 3.335 0 6.669.002 4.654.003 9.31-.007l2.806.007 2.554-.009 2.225-.001c1.907-.017 1.907-.017 3.805-1.126 10.11-.715 19.078.153 28.25 4.562 6.527 5.786 11.337 13.085 12.017 21.908l.024 3.861.02 2.146.025 6.98.02 4.887q.017 5.115.015 10.23l.061 13.052.025 10.092q.004 2.404.027 4.81c.086 9.73-.303 17.6-6.125 25.777l-1.609 1.57-1.578 1.617c-8.211 5.7-17.298 4.922-26.838 4.864q-2.538.001-5.077.007a2857.94 2857.94 0 0 1-13.734-.026l-14.38-.015q-12.06-.006-24.123-.04l-30.992-.044-26.636-.03q-4.286-.007-8.571-.01-6.72-.008-13.44-.03-2.47-.007-4.942-.008-3.36-.004-6.723-.02l-3.806-.009C312 827 312 827 310 826a387 387 0 0 0-7-.25c-22.499-1.101-46.538-11.45-63-26.75a2002 2002 0 0 0-4-3.438 815 815 0 0 1-4-3.562l-1.746-1.543C216.322 777.426 205.35 756.68 202 738l-1-2c-.315-3.08-.51-6.161-.719-9.25-.113-2.709-.113-2.709-1.281-4.75a164.98 164.98 0 0 1-.167-7.172l-.018-2.265q-.025-3.777-.04-7.554-.015-2.7-.034-5.4l-.085-17.773-.012-3.053q-.056-14.252-.089-28.505a8124 8124 0 0 0-.16-36.469q-.082-12.817-.094-25.636l-.072-15.312q-.063-7.207-.039-14.415 0-2.641-.038-5.282c-.203-14.953-.203-14.953 4.2-20.095 1.834-1.663 1.834-1.663 3.648-3.069l1.646-1.497c5.198-4.648 8.964-5.803 15.841-5.81"/><path fill="#1e83aa" d="M313.096 198.846l2.24-.013q3.735-.019 7.471-.026l5.341-.025 17.579-.055 6.048-.017q12.582-.033 25.164-.051 18.036-.023 36.07-.107 12.678-.056 25.356-.063l15.145-.048q7.128-.044 14.257-.025 2.612 0 5.224-.025c16.283-.156 16.283-.156 21.516 4.018 5.27 5.616 7.244 10.424 7.14 18.083l.027 2.448-.01 7.935q.005 2.779.015 5.558.009 5.81-.027 11.62l.018 14.848v11.468q-.006 2.737.011 5.473l-.034 7.666.03 2.255c-.136 6.844-3.171 11.559-7.775 16.48l-1.964 1.632-1.973 1.68c-3.744 2.753-6.453 3.695-11.122 3.697l-3.16.016-3.45-.013-3.648.011q-3.926.01-7.854.008c-4.155-.002-8.31.012-12.464.03q-17.723.068-35.447.077-9.79.006-19.58.055l-10.336.017c-26.144-.298-26.144-.298-49.904 9.547l-1.812.938c-9.328 5.33-13.408 17.805-16.332 27.506-1.342 5.577-1.395 10.943-1.338 16.655l-.012 3.75q-.01 3.993.008 7.986l-.004 12.65-.01 26.828-.017 29.027q-.02 6.278.013 12.555l-.014 9.653.035 3.478c-.06 7.78-1.21 13.122-6.412 19.181l-1.917 1.606-1.895 1.644c-5.646 3.8-10.56 4.99-17.304 4.963l-2.33.026-7.561.023-5.294.023q-5.535.019-11.072.009a1440 1440 0 0 0-14.146.065l-10.925.025q-2.607.002-5.213.03c-17.51.16-17.51.16-23.448-5.621l-1.495-1.443c-4.99-5.405-5.755-10.935-5.752-18.06l-.008-2.227.012-7.351-.006-5.284.013-14.323.007-14.983q.002-12.574.023-25.149.023-14.55.02-29.103 0-13.99.013-27.98.006-5.96.006-11.919.002-7.008.017-14.016.004-2.577.004-5.154 0-3.507.012-7.012l.005-3.971C199 305 199 305 200 303a767 767 0 0 0 .063-5.125C201.57 277.276 211.642 255.768 226 241a836 836 0 0 0 3.5-4.125c3.232-3.684 6.691-6.804 10.5-9.875l2.313-1.937c12.36-10.198 26.323-17.52 41.687-22.063l2.11-.652c5.055-1.431 10.119-1.777 15.35-2.102 4-.387 7.457-1.397 11.636-1.4"/><path fill="#3ea047" d="M547.352 198.753l2.177-.008 7.185.012q2.582-.001 5.165-.006l14.001.013 14.647.007q12.293.002 24.584.023 14.225.023 28.449.02 13.676 0 27.352.013 5.826.006 11.65.006 6.851.002 13.701.017 2.52.004 5.039.004 3.428 0 6.854.012l3.882.005C715 199 715 199 717 200l6.5.25c22.053 1.156 42.549 11.118 59.5 24.75l2.84 2.238c4.955 3.958 9.371 7.675 13.16 12.762l1.414 1.793c3.404 4.372 6.314 8.924 9.094 13.715a89 89 0 0 0 3.484 5.336c2.152 3.382 3.637 6.788 5.008 10.531l.71 1.824c5.268 14.13 6.883 27.18 6.823 42.115q.011 2.822.027 5.643l.01 15.172.01 12.705-.004 29.965.032 30.865q.039 13.29.025 26.58l.018 15.842q.025 7.437-.012 14.873-.008 2.723.01 5.447c.107 16.56.107 16.56-4.269 22.198-6.08 6.152-11.589 6.946-20.09 7.081-2.576.01-5.151-.004-7.728-.02q-2.71.003-5.423.014-5.67.009-11.337-.027a1185.41 1185.41 0 0 0-14.485.018h-11.19q-2.67-.006-5.34.011c-17.06.088-17.06.088-23.787-5.681l-2.426-1.816c-6.503-6.019-8.18-12.449-8.777-21.141-.04-2.377-.055-4.68.203-7.043l1-1a57.14 57.14 0 0 0 .127-4.055l.009-2.647-.007-2.927.006-3.064q.004-5.043-.002-10.084 0-3.489.003-6.977.002-7.322-.006-14.645-.006-9.405.004-18.809.005-7.208 0-14.414 0-3.469.002-6.937.003-4.84-.007-9.683l.007-2.92-.009-2.656-.001-2.314c-.012-1.96-.012-1.96-1.126-3.868l-.25-3.875c-1.196-11.605-7.568-23.125-16.504-30.523-12.187-8.69-25.964-10.922-40.59-10.826h-3.615q-4.866 0-9.732.017c-3.414.007-6.828-.003-10.242-.012l-34.808-.011q-9.636.025-19.27-.018c-3.39-.014-6.778-.017-10.167.006a951 951 0 0 1-11.35-.017l-3.345.047c-8.91-.118-16.116-2.88-22.565-9.163-3.755-6.31-6.165-11.216-6.095-18.75l-.027-2.33-.006-7.545q-.008-2.644-.02-5.29-.014-5.526.01-11.054l-.042-14.121-.012-10.913q0-2.602-.02-5.205c-.127-17.472-.127-17.472 5.65-23.417l1.443-1.496c5.356-4.942 10.844-5.754 17.909-5.751"/><path d="M223.487 522.694l2.269-.026 7.416-.04 5.172-.026q5.422-.024 10.843-.028l13.853-.088 10.687-.038a519 519 0 0 0 5.104-.038c16.383-.185 16.383-.185 23.169 5.59l2.426 2.027 1.886 1.91 1.926 1.903c5.255 6.443 5.19 12.23 5.147 20.217l.016 3.668q.015 3.938.01 7.877l.028 12.487.061 26.536.07 28.592q.028 6.189.016 12.379l.03 9.57-.02 3.411c.117 15.1 4.422 29.066 14.994 40.08 8.183 7.547 18.386 11.295 29.336 12.097C360 711 360 711 361 712c3.094.1 6.167.136 9.261.13l2.947.005q4.847.004 9.694-.002l6.708.003q7.04.001 14.08-.006 9.042-.006 18.082.004 6.93.004 13.859 0 3.335 0 6.669.002 4.654.003 9.31-.007l2.806.007 2.554-.009 2.225-.001c1.907-.017 1.907-.017 3.805-1.126 10.11-.715 19.078.153 28.25 4.562 6.527 5.786 11.337 13.085 12.017 21.908l.024 3.861.02 2.146.025 6.98.02 4.887q.017 5.115.015 10.23l.061 13.052.025 10.092q.004 2.404.027 4.81c.086 9.73-.303 17.6-6.125 25.777l-1.609 1.57-1.578 1.617c-8.211 5.7-17.298 4.922-26.838 4.864q-2.538.001-5.077.007a2857.94 2857.94 0 0 1-13.734-.026l-14.38-.015q-12.06-.006-24.123-.04l-30.992-.044-26.636-.03q-4.286-.007-8.571-.01-6.72-.008-13.44-.03-2.47-.007-4.942-.008-3.36-.004-6.723-.02l-3.806-.009C312 827 312 827 310 826a387 387 0 0 0-7-.25c-22.499-1.101-46.538-11.45-63-26.75a2002 2002 0 0 0-4-3.438 815 815 0 0 1-4-3.562l-1.746-1.543C216.322 777.426 205.35 756.68 202 738l-1-2c-.315-3.08-.51-6.161-.719-9.25-.113-2.709-.113-2.709-1.281-4.75a164.98 164.98 0 0 1-.167-7.172l-.018-2.265q-.025-3.777-.04-7.554-.015-2.7-.034-5.4l-.085-17.773-.012-3.053q-.056-14.252-.089-28.505a8124 8124 0 0 0-.16-36.469q-.082-12.817-.094-25.636l-.072-15.312q-.063-7.207-.039-14.415 0-2.641-.038-5.282c-.203-14.953-.203-14.953 4.2-20.095 1.834-1.663 1.834-1.663 3.648-3.069l1.646-1.497c5.198-4.648 8.964-5.803 15.841-5.81m-18.162 12.519c-1.692 3.559-1.705 6.218-1.713 10.156l-.016 2.22v7.352l-.02 5.28-.012 14.346-.009 12.013q-.02 14.202-.001 28.402l-.03 29.162q-.032 12.56-.022 25.12l-.017 14.963c-.563 34.39-.563 34.39 8.327 67.335l1.047 2.488C217.5 764.83 223.38 774.087 231 783l1.934 2.34C249.409 804.733 274.922 816.847 300 820c6.107.296 12.207.295 18.32.29l5.502.02a4516 4516 0 0 0 14.856.025q4.646.001 9.29.01 16.214.028 32.427.026l30.206.051q12.986.038 25.973.036l15.496.026q7.278.029 14.556.005 2.668-.003 5.338.015l7.29-.01 2.128.032c4.974-.07 7.771-1.44 11.618-4.526 3.295-4.027 3.445-7.842 3.436-12.86l.03-2.353.038-7.678.03-5.362q.026-5.617.022-11.237l.092-14.347.038-11.077q.006-2.643.04-5.286c.309-12.23.309-12.23-4.754-23.088-7.11-6.172-12.88-6.296-22.067-6.258l-3.964-.031-10.71-.03-11.21-.052-21.206-.074-24.153-.095Q373.831 716.05 349 716l-1-2a65 65 0 0 0-4.188-1c-9.83-2.772-20.178-10.468-25.812-19l-1.574-2.207c-9.452-14.899-7.858-35.103-7.837-52.027l-.028-11.893-.064-27.33-.068-25.198-.014-13.704q-.014-3.578-.03-7.154l.018-3.273c-.058-7.056-.98-11.472-5.778-16.902-5.567-4.904-9.725-6.462-16.993-6.505l-2.302-.025q-3.78-.036-7.56-.055l-2.61-.017q-6.84-.039-13.679-.06l-14.109-.112-10.863-.051a522 522 0 0 1-5.2-.046 453 453 0 0 0-7.294-.024l-2.153-.05c-6.537.08-10.69 2.762-14.537 7.846"/><path fill="#1a150a" d="M740.888 522.662l2.29-.035 7.435-.068 2.584-.021q6.767-.054 13.534-.073l13.91-.144 10.76-.063q2.563-.011 5.125-.06c9.136-.158 16.306-.073 23.718 6.004 4.348 4.452 5.048 8.783 5.756 14.798l1 1c.125 3 .125 3 0 6l-1 1c-.1 2.268-.13 4.538-.131 6.808l-.007 2.184q-.007 3.65-.004 7.3l-.01 5.212q-.012 5.632-.017 11.263-.01 8.922-.041 17.845l-.019 6.11-.01 3.093-.087 41.556a8738 8738 0 0 1-.07 28.007l-.026 14.81q.005 6.988-.037 13.975a611 611 0 0 0 0 5.093c.12 31.151-12.43 56.942-33.978 78.744l-1.474 1.501c-8.303 8.405-17.026 15.053-27.987 19.604-2.04.868-3.96 1.853-5.914 2.895-11.24 5.675-23.268 7.968-35.72 8.754-2.469.098-2.469.098-4.468 1.246-2.313.106-4.629.144-6.944.154l-2.191.013q-3.653.019-7.305.026l-5.223.025-17.189.055-5.915.017q-12.303.033-24.608.051-17.636.023-35.27.107-12.398.056-24.796.063l-14.81.048q-6.97.044-13.941.025-2.555 0-5.108.025c-16.704.164-16.704.164-22.7-5.609-5.578-5.633-7.3-10.004-7.306-17.854l-.026-2.387a1162 1162 0 0 1-.04-7.806l-.026-5.44a3192 3192 0 0 1-.028-11.41l-.088-14.579-.038-11.242q-.006-2.686-.038-5.372c-.116-10.776-.017-17.917 7.688-26.152l1.965-1.633 1.972-1.68c8.202-6.033 18.563-5.739 28.324-5.716l3.621-.016q4.872-.018 9.744-.019l10.252-.04 30.439-.101 23.69-.083q5.09-.029 10.18-.029l11.356-.04 3.357.014c10.402-.097 18.51-2.423 27.002-8.415l2.063-1.305c9.26-6.209 13.297-16.169 15.937-26.695.508-4.397.526-8.73.482-13.153l.012-3.804q.01-4.056-.008-8.112l.004-12.852.01-27.266.017-29.48q.02-6.376-.013-12.753l.014-9.815-.035-3.529c.06-8.121 1.435-14.361 6.552-20.795l2.028-1.878 2.035-1.934c5.903-5.055 12.234-5.926 19.79-5.967M721 534c-3.316 5.079-5.12 10.001-5.145 16.09l-.02 3.19-.009 3.5-.02 3.687a4659 4659 0 0 0-.036 7.94l-.065 12.572q-.105 17.874-.182 35.75-.043 9.87-.106 19.742-.04 6.24-.056 12.48l-.058 9.622-.002 3.469c-.135 14.89-4.893 28.098-15.301 38.958-6.206 5.928-13.026 9.027-21 12l-2.335 1.049c-2.886 1.03-5.054 1.204-8.11 1.21l-3.275.02-3.562-.008-3.777.016q-4.058.016-8.115.018l-12.85.04-31.919.102-24.802.083q-6.378.032-12.756.028l-9.828.041-3.545-.014c-8.538.076-15.809 1.098-22.126 7.415-3.427 5.099-4.586 8.858-4.502 15.043l-.016 2.339.022 7.59q0 2.655-.005 5.308 0 5.55.034 11.098l.013 14.2.014 10.95q.006 2.618 0 5.236l.036 7.322-.014 2.168c.069 4.656.816 7.87 3.418 11.746 4.501 3.654 8 4.58 13.662 4.508l2.278.019 7.53-.01q2.706.009 5.412.022l14.692-.002 15.422.006q12.967.01 25.936-.022l29.865.008q12.857.026 25.713.01l15.324.006q7.224.016 14.45-.02a651 651 0 0 1 5.26.006c15.324.07 29.826-2.245 44.206-7.781l2.38-.906c25.677-10.089 45.997-30.29 57.753-55.18 7.34-17.504 9.576-34.597 9.521-53.39l.02-5.416.012-14.54.009-12.176q.02-14.355.001-28.708l.03-29.583q.032-12.738.022-25.476-.007-7.592.017-15.184.022-7.123-.008-14.245-.005-2.612.01-5.222l-.016-7.132.03-2.08c-.076-4.932-1.477-7.7-4.531-11.512-4.486-3.808-8.155-4.59-13.882-4.55l-2.323-.03a591 591 0 0 0-7.565-.022q-2.645-.01-5.29-.026a1608 1608 0 0 0-11.078-.003 1169.72 1169.72 0 0 1-14.142-.069l-10.925-.025a472 472 0 0 1-5.211-.032c-13.514-.298-13.514-.298-24.584 6.757"/><path fill="#06131a" d="M313.096 198.846l2.24-.013q3.735-.019 7.471-.026l5.341-.025 17.579-.055 6.048-.017q12.582-.033 25.164-.051 18.036-.023 36.07-.107 12.678-.056 25.356-.063l15.145-.048q7.128-.044 14.257-.025 2.612 0 5.224-.025c16.283-.156 16.283-.156 21.516 4.018 5.27 5.616 7.244 10.424 7.14 18.083l.027 2.448-.01 7.935q.005 2.779.015 5.558.009 5.81-.027 11.62l.018 14.848v11.468q-.006 2.737.011 5.473l-.034 7.666.03 2.255c-.136 6.844-3.171 11.559-7.775 16.48l-1.964 1.632-1.973 1.68c-3.744 2.753-6.453 3.695-11.122 3.697l-3.16.016-3.45-.013-3.648.011q-3.926.01-7.854.008c-4.155-.002-8.31.012-12.464.03q-17.723.068-35.447.077-9.79.006-19.58.055l-10.336.017c-26.144-.298-26.144-.298-49.904 9.547l-1.812.938c-9.328 5.33-13.408 17.805-16.332 27.506-1.342 5.577-1.395 10.943-1.338 16.655l-.012 3.75q-.01 3.993.008 7.986l-.004 12.65-.01 26.828-.017 29.027q-.02 6.278.013 12.555l-.014 9.653.035 3.478c-.06 7.78-1.21 13.122-6.412 19.181l-1.917 1.606-1.895 1.644c-5.646 3.8-10.56 4.99-17.304 4.963l-2.33.026-7.561.023-5.294.023q-5.535.019-11.072.009a1440 1440 0 0 0-14.146.065l-10.925.025q-2.607.002-5.213.03c-17.51.16-17.51.16-23.448-5.621l-1.495-1.443c-4.99-5.405-5.755-10.935-5.752-18.06l-.008-2.227.012-7.351-.006-5.284.013-14.323.007-14.983q.002-12.574.023-25.149.023-14.55.02-29.103 0-13.99.013-27.98.006-5.96.006-11.919.002-7.008.017-14.016.004-2.577.004-5.154 0-3.507.012-7.012l.005-3.971C199 305 199 305 200 303a767 767 0 0 0 .063-5.125C201.57 277.276 211.642 255.768 226 241a836 836 0 0 0 3.5-4.125c3.232-3.684 6.691-6.804 10.5-9.875l2.313-1.937c12.36-10.198 26.323-17.52 41.687-22.063l2.11-.652c5.055-1.431 10.119-1.777 15.35-2.102 4-.387 7.457-1.397 11.636-1.4M245 228l-2.512 2.188A426 426 0 0 0 235 237l-1.871 1.672c-14.842 13.848-24.712 35.293-27.78 55.189l-.385 2.493c-1.262 8.775-1.394 17.457-1.368 26.307l-.02 5.324-.012 14.26-.009 11.953q-.02 14.091-.001 28.182l-.03 29.024q-.032 12.508-.022 25.015.007 7.45-.017 14.901-.021 6.99.008 13.977.005 2.56-.01 5.12l.016 6.998v3.95c.72 5.224 2.655 9.068 6.753 12.546 3.593 1.424 6.91 1.524 10.716 1.509l2.387.026 7.79.023 5.436.023q5.696.019 11.39.009l14.557.065 11.229.025q2.682.002 5.364.03c11.857.634 11.857.634 22.267-3.937 6.71-7.01 7.322-14.277 7.192-23.617l.011-5.839-.03-6.228-.02-13.043a6001 6001 0 0 0-.049-30.054l-.028-27.534q.011-6.464-.042-12.927a756 756 0 0 1-.01-6.128q.009-3.71-.042-7.42c.055-7.547 1.561-13.395 4.557-20.328 1.202-2.41 1.202-2.41 1.073-4.566h2a106 106 0 0 0 3.938-5.375c3.739-5.41 3.739-5.41 7.062-7.625v-2l2.188-.75c2.877-1.119 2.877-1.119 5.083-3.19 8.41-6.35 19.984-6.642 30.125-6.542l3.81-.012q4.053-.01 8.105.008l12.839-.004 27.225-.01 29.467-.017q6.372-.02 12.744.013l9.794-.014 3.53.035c7.243-.055 13.145-.844 18.607-5.929 4.826-5.42 5.782-10.35 5.774-17.404l.02-2.338.025-7.623.02-5.317q.017-5.566.015-11.133l.061-14.247.025-10.977q.005-2.625.027-5.252l.002-7.351.034-2.178c-.063-5.054-1.208-7.967-4.52-11.768-4.538-2.79-8.339-3.432-13.561-3.381l-2.246-.014a858 858 0 0 0-7.42.007q-2.666-.006-5.333-.016a3036.18 3036.18 0 0 0-14.474.001c-5.063.008-10.126 0-15.189-.004q-12.768-.007-25.537.016c-9.807.016-19.615.011-29.422-.006a9945 9945 0 0 0-25.324-.007c-5.031.004-10.063.005-15.095-.005q-7.114-.012-14.228.015-2.592.006-5.185-.004C292.48 203.509 265.284 210.004 245 228"/><path d="M547.352 198.753l2.177-.008 7.185.012q2.582-.001 5.165-.006l14.001.013 14.647.007q12.293.002 24.584.023 14.225.023 28.449.02 13.676 0 27.352.013 5.826.006 11.65.006 6.851.002 13.701.017 2.52.004 5.039.004 3.428 0 6.854.012l3.882.005C715 199 715 199 717 200l6.5.25c22.053 1.156 42.549 11.118 59.5 24.75l2.84 2.238c4.955 3.958 9.371 7.675 13.16 12.762l1.414 1.793c3.404 4.372 6.314 8.924 9.094 13.715a89 89 0 0 0 3.484 5.336c2.152 3.382 3.637 6.788 5.008 10.531l.71 1.824c5.268 14.13 6.883 27.18 6.823 42.115q.011 2.822.027 5.643l.01 15.172.01 12.705-.004 29.965.032 30.865q.039 13.29.025 26.58l.018 15.842q.025 7.437-.012 14.873-.008 2.723.01 5.447c.107 16.56.107 16.56-4.269 22.198-6.08 6.152-11.589 6.946-20.09 7.081-2.576.01-5.151-.004-7.728-.02q-2.71.003-5.423.014-5.67.009-11.337-.027a1185.41 1185.41 0 0 0-14.485.018h-11.19q-2.67-.006-5.34.011c-17.06.088-17.06.088-23.787-5.681l-2.426-1.816c-6.503-6.019-8.18-12.449-8.777-21.141-.04-2.377-.055-4.68.203-7.043l1-1a57.14 57.14 0 0 0 .127-4.055l.009-2.647-.007-2.927.006-3.064q.004-5.043-.002-10.084 0-3.489.003-6.977.002-7.322-.006-14.645-.006-9.405.004-18.809.005-7.208 0-14.414 0-3.469.002-6.937.003-4.84-.007-9.683l.007-2.92-.009-2.656-.001-2.314c-.012-1.96-.012-1.96-1.126-3.868l-.25-3.875c-1.196-11.605-7.568-23.125-16.504-30.523-12.187-8.69-25.964-10.922-40.59-10.826h-3.615q-4.866 0-9.732.017c-3.414.007-6.828-.003-10.242-.012l-34.808-.011q-9.636.025-19.27-.018c-3.39-.014-6.778-.017-10.167.006a951 951 0 0 1-11.35-.017l-3.345.047c-8.91-.118-16.116-2.88-22.565-9.163-3.755-6.31-6.165-11.216-6.095-18.75l-.027-2.33-.006-7.545q-.008-2.644-.02-5.29-.014-5.526.01-11.054l-.042-14.121-.012-10.913q0-2.602-.02-5.205c-.127-17.472-.127-17.472 5.65-23.417l1.443-1.496c5.356-4.942 10.844-5.754 17.909-5.751M529 211c-1.519 3.037-1.174 6.202-1.193 9.536l-.025 2.356q-.036 3.87-.055 7.74l-.017 2.673a5311 5311 0 0 0-.06 14.013l-.112 14.445-.051 11.13a546 546 0 0 1-.046 5.321c-.402 12.823-.402 12.823 5.559 23.786 4.638 4.406 8.992 6.25 15.373 6.252l3.228.016 3.51-.013 3.722.011q4.002.01 8.003.008l12.69.03q18.04.068 36.08.077 9.969.006 19.938.055 6.288.03 12.576.012l9.734.038 3.461-.025c14.613.148 27.524 5.259 38.685 14.539l1.605 1.684c1.318 1.545 1.318 1.545 3.395 1.316l.29 1.586c1.309 4.447 3.763 8.429 5.92 12.516 4.243 8.804 5.227 16.985 5.175 26.688l.016 3.758q.015 4.016.01 8.031l.028 12.71.064 29.254.068 26.863q.026 6.312.015 12.625l.03 9.697-.02 3.514c.051 6.638.402 11.568 5.158 16.621l1.808 1.45 1.817 1.488c3.624 2.68 7.03 2.368 11.372 2.392l2.425.025q3.982.036 7.965.055l2.746.017q7.198.039 14.396.06l14.862.112 11.433.051q2.74.01 5.477.046l7.676.024 2.277.05c3.841-.045 6.4-.568 9.384-2.92 4.385-4.562 4.904-7.908 4.882-14.114l.016-2.267.016-7.527q.011-2.7.026-5.397l.035-14.68q.006-4.598.017-9.196.037-16.074.042-32.148l.075-29.838q.051-12.846.05-25.693l.039-15.308c.599-29.208.599-29.208-5.59-57.545l-.828-2.353C808.451 260.622 799.815 248.115 788 236l-1.984-2.207C769.45 215.848 742.563 206.946 719 204a212.56 212.56 0 0 0-7.697-.167l-2.254-.018q-3.711-.025-7.424-.04-2.67-.015-5.343-.034l-17.497-.085-3.01-.012q-14.062-.056-28.125-.089a7906 7906 0 0 1-35.926-.16 4581 4581 0 0 0-25.292-.094l-15.094-.072q-7.099-.063-14.196-.039-2.6 0-5.2-.038c-13.128-.249-13.128-.249-22.942 7.848m211.888 311.662l2.29-.035 7.435-.068 2.584-.021q6.767-.054 13.534-.073l13.91-.144 10.76-.063q2.563-.011 5.125-.06c9.136-.158 16.306-.073 23.718 6.004 4.348 4.452 5.048 8.783 5.756 14.798l1 1c.125 3 .125 3 0 6l-1 1c-.1 2.268-.13 4.538-.131 6.808l-.007 2.184q-.007 3.65-.004 7.3l-.01 5.212q-.012 5.632-.017 11.263-.01 8.922-.041 17.845l-.019 6.11-.01 3.093-.087 41.556a8738 8738 0 0 1-.07 28.007l-.026 14.81q.005 6.988-.037 13.975a611 611 0 0 0 0 5.093c.12 31.151-12.43 56.942-33.978 78.744l-1.474 1.501c-8.303 8.405-17.026 15.053-27.987 19.604-2.04.868-3.96 1.853-5.914 2.895-11.24 5.675-23.268 7.968-35.72 8.754-2.469.098-2.469.098-4.468 1.246-2.313.106-4.629.144-6.944.154l-2.191.013q-3.653.019-7.305.026l-5.223.025-17.189.055-5.915.017q-12.303.033-24.608.051-17.636.023-35.27.107-12.398.056-24.796.063l-14.81.048q-6.97.044-13.941.025-2.555 0-5.108.025c-16.704.164-16.704.164-22.7-5.609-5.578-5.633-7.3-10.004-7.306-17.854l-.026-2.387a1162 1162 0 0 1-.04-7.806l-.026-5.44a3192 3192 0 0 1-.028-11.41l-.088-14.579-.038-11.242q-.006-2.686-.038-5.372c-.116-10.776-.017-17.917 7.688-26.152l1.965-1.633 1.972-1.68c8.202-6.033 18.563-5.739 28.324-5.716l3.621-.016q4.872-.018 9.744-.019l10.252-.04 30.439-.101 23.69-.083q5.09-.029 10.18-.029l11.356-.04 3.357.014c6.858-.064 12.54-1.185 19.002-3.415l4-1c-1 3-1 3-2.562 4.063-6.235 2.397-12.31 3.288-18.929 3.56l-2.468.115c-9.635.399-19.272.36-28.913.307q-5.048-.026-10.097-.036-14.33-.037-28.66-.105-8.826-.04-17.65-.055-3.334-.009-6.667-.03c-21.276-1.338-21.276-1.338-39.784 6.865l-1.457 1.754-1.481 1.746c-3.307 4.51-3.63 8.281-3.623 13.794l-.02 2.426-.025 7.932-.02 5.522q-.017 5.788-.015 11.576l-.061 14.815a1860 1860 0 0 0-.025 11.406q-.005 2.73-.027 5.462l-.002 7.646-.034 2.268c.061 5.128 1.318 8.003 4.52 11.969 1.92 1.774 1.92 1.774 4 3l1.67 1.06c3.261 1.315 6.093 1.204 9.607 1.218l2.225.018 7.384.023 5.292.03 14.373.056 15.018.068q14.221.068 28.443.116l32.379.138q33.304.155 66.609.273v-2l2.773-.184 3.602-.253 3.586-.247c2.954-.127 2.954-.127 5.039-1.316 1.393-.153 2.79-.274 4.188-.375 3.166-.31 5.68-.839 8.562-2.187 3.124-1.382 4.901-1.742 8.25-1.438v-2l3-1.102c6.741-2.542 12.839-4.929 18.434-9.593C776 803 776 803 778.688 801.438c3.75-2.332 6.508-5.392 9.187-8.875 2.208-2.663 4.55-4.694 7.246-6.84 4.91-4.503 8.498-9.922 12.004-15.535l1.332-2.125c2.988-4.883 5.147-9.48 6.543-15.063h2l-.187-2c.204-3.267 1.21-5.787 2.393-8.813 3.476-9.573 3.094-19.597 3.097-29.63q.012-2.628.026-5.256.027-5.631.037-11.262l.064-17.798q.061-14.062.103-28.126.077-25.222.185-50.446.038-8.853.06-17.706.015-5.49.04-10.98.008-2.553.012-5.106.007-3.473.025-6.946l.012-3.933C823 552 823 552 824 550c.407-6.732-1.32-12.858-4-19-1.955-2.115-3.324-2.81-6-4l-1-1a172 172 0 0 0-7.438-.161l-2.36-.015q-3.887-.021-7.772-.027l-5.394-.017q-5.667-.015-11.334-.02l-14.496-.058-11.154-.026q-2.67-.004-5.342-.024a793 793 0 0 0-7.496-.008l-2.214-.028c-6.741.054-12.042 2.138-17.25 6.447l-1.953 1.535c-5.005 6.69-5.226 15.18-5.122 23.226l.004 3.128.063 10.165q.012 3.572.02 7.145l.09 18.787.126 29.955q.022 5.184.058 10.368c.062 11.648-.125 23.226-.817 34.855-.13 2.255-.219 4.514-.219 6.773v3l-3 1c-1.23 3.512-1.23 3.512-2 7l-2-1q.714-2.938 1.438-5.875l.808-3.305C709 676 709 676 710 674c.096-1.703.129-3.41.131-5.115l.012-3.284-.001-3.619.01-3.8q.012-4.096.017-8.194.01-6.487.041-12.975l.029-6.692.087-30.21q.011-10.185.07-20.371l.026-10.774.048-12.042-.02-3.576c.092-8.16 1.443-14.442 6.585-20.907l2.028-1.878 2.035-1.934c5.903-5.055 12.234-5.926 19.79-5.967M313.096 198.846l2.24-.013q3.735-.019 7.471-.026l5.341-.025 17.579-.055 6.048-.017q12.582-.033 25.164-.051 18.036-.023 36.07-.107 12.678-.056 25.356-.063l15.145-.048q7.128-.044 14.257-.025 2.612 0 5.224-.025c16.283-.156 16.283-.156 21.516 4.018 5.27 5.616 7.244 10.424 7.14 18.083l.027 2.448-.01 7.935q.005 2.779.015 5.558.009 5.81-.027 11.62l.018 14.848v11.468q-.006 2.737.011 5.473l-.034 7.666.03 2.255c-.136 6.844-3.171 11.559-7.775 16.48l-1.964 1.632-1.973 1.68c-3.744 2.753-6.453 3.695-11.122 3.697l-3.16.016-3.45-.013-3.648.011q-3.926.01-7.854.008c-4.155-.002-8.31.012-12.464.03q-17.723.068-35.447.077-9.79.006-19.58.055l-10.336.017c-26.144-.298-26.144-.298-49.904 9.547l-1.812.938c-9.328 5.33-13.408 17.805-16.332 27.506-1.342 5.577-1.395 10.943-1.338 16.655l-.012 3.75q-.01 3.993.008 7.986l-.004 12.65-.01 26.828-.017 29.027q-.02 6.278.013 12.555l-.014 9.653.035 3.478c-.06 7.78-1.21 13.122-6.412 19.181l-1.917 1.606-1.895 1.644c-5.646 3.8-10.56 4.99-17.304 4.963l-2.33.026-7.561.023-5.294.023q-5.535.019-11.072.009a1440 1440 0 0 0-14.146.065l-10.925.025q-2.607.002-5.213.03c-17.51.16-17.51.16-23.448-5.621l-1.495-1.443c-4.99-5.405-5.755-10.935-5.752-18.06l-.008-2.227.012-7.351-.006-5.284.013-14.323.007-14.983q.002-12.574.023-25.149.023-14.55.02-29.103 0-13.99.013-27.98.006-5.96.006-11.919.002-7.008.017-14.016.004-2.577.004-5.154 0-3.507.012-7.012l.005-3.971C199 305 199 305 200 303a767 767 0 0 0 .063-5.125C201.57 277.276 211.642 255.768 226 241a836 836 0 0 0 3.5-4.125c3.224-3.684 6.73-6.768 10.5-9.875a983 983 0 0 0 4.438-3.875l2.058-1.805L248 220c0 3 0 3-1.137 4.5-2.505 2.424-4.71 4.41-7.738 6.188L237 232v3l-2.25.688c-3.38 1.613-4.524 3.3-6.75 6.312l-1.488 1.543c-10.553 10.99-15.97 25.19-20.512 39.457l-1.125 3.043c-1.015 3.43-1.258 6.575-1.437 10.145-.34 6.52-.34 6.52-1.438 9.812a178 178 0 0 0-.14 7.064l-.01 2.194q-.01 3.648-.011 7.295l-.015 5.224q-.019 7.103-.024 14.207-.005 4.439-.012 8.878-.02 13.889-.027 27.778-.007 16.03-.05 32.059-.033 12.391-.034 24.782a4338 4338 0 0 1-.025 14.8q-.023 6.964-.01 13.93.002 2.55-.013 5.103l.004 6.987-.005 3.943c.553 5.586 1.749 10.214 5.872 14.131L210 496l3 2c2.585.204 5.063.294 7.65.29l2.356.02 7.724.026 5.378.02q5.643.017 11.286.015l14.421.061 11.116.025q2.657.004 5.314.027l7.459.002 2.194.034c6.749-.082 11.746-2.583 16.915-6.832 5.64-6.93 5.614-13.307 5.556-21.935l.011-3.693q.011-3.962 0-7.923l.017-12.563.04-31.217.04-24.251q.024-6.225-.001-12.451l.026-9.632-.03-3.424c.133-14.96 5.801-30.849 16.528-41.599 3.438-1.562 3.438-1.562 6-2v-2c4.91-2.628 9.553-4.685 15-6l2.1-.515c6.872-1.541 13.45-1.76 20.475-1.725l3.69-.006q3.941-.005 7.882.002l12.485-.017 35.48-.044q9.823.01 19.644-.037 6.195-.026 12.392.004l9.536-.034 3.436.035c8.256-.097 12.78-2.134 18.948-7.443 5.888-7.766 4.76-17.212 4.659-26.482q-.001-2.817.003-5.635-.001-5.884-.058-11.768l-.033-15.06-.026-11.62q-.012-2.778-.007-5.554l-.057-7.76.015-2.3c-.102-5.152-1.223-8.13-4.564-12.041-4.09-3.1-7.607-3.425-12.58-3.367l-2.288-.01c-2.525-.008-5.05.006-7.574.02q-2.718 0-5.436-.006c-4.917-.005-9.834.009-14.751.026l-15.421.015q-12.943.006-25.886.04l-33.27.044-28.561.03q-4.602.007-9.204.01-7.215.008-14.43.03-2.655.007-5.31.008-3.608.004-7.217.02l-2.15-.003c-3.241-.255-3.241-.255-5.922 1.143-3.361.325-6.723.514-10.094.719-2.797-.04-2.797-.04-3.906 1.281l-3.125.375c-4.811.776-8.521 2.448-12.875 4.625l-2-2c10.117-4.418 18.447-7.07 29.46-7.754 4-.387 7.457-1.397 11.636-1.4"/><path fill="#251517" d="M331 706c4.86.477 7.917 1.383 12 4 12.859 5.332 27.319 4.279 40.941 4.23h6.653q6.936-.003 13.871-.024l17.795-.02q6.852-.001 13.704-.013 3.283-.005 6.566-.006 4.57-.004 9.14-.022l2.744.002 2.51-.013 2.179-.005c2.122-.064 2.122-.064 4.897-1.129 10.037-.817 20.514.202 29 6 2.063 2.625 2.063 2.625 4 6l1.047 1.7c4.114 7.676 3.514 15.885 3.45 24.34q-.001 2.476.004 4.955 0 5.171-.034 10.343l-.013 13.217-.014 10.218a939 939 0 0 0 0 4.872l-.036 6.818-.016 3.908c-.63 5.9-2.57 10.542-7.2 14.442l-1.958 1.707c-4.909 3.258-9.682 3.73-15.468 3.727l-2.14.008a1186.76 1186.76 0 0 1-7.06-.012q-2.54.001-5.077.006a4207.51 4207.51 0 0 1-13.76-.013l-14.394-.007q-12.08-.002-24.16-.023-13.98-.023-27.958-.02-13.44 0-26.882-.013-5.724-.006-11.45-.006-6.73-.002-13.463-.017-2.475-.004-4.952-.004-3.367 0-6.736-.012l-3.814-.005C312 825 312 825 310 824a269 269 0 0 0-7.562-.437c-5.993-.326-11.657-.856-17.438-2.563l-2.398-.691c-4.036-1.248-7.422-2.406-10.602-5.309 1.621-1.11 1.621-1.11 4-2 2.848.61 2.848.61 6.063 1.75 12.01 4.216 23.674 4.549 36.257 4.54l5.502.02 14.856.025q4.646.001 9.29.01 16.214.028 32.427.026l30.206.051q12.986.038 25.973.036l15.496.026q7.278.029 14.556.005 2.668-.003 5.338.015l7.29-.01 2.128.032c4.969-.07 7.77-1.45 11.618-4.526 2.676-3.483 2.303-7.544 2.306-11.763l.026-2.357.04-7.708.026-5.374q.024-5.633.028-11.267l.088-14.398.038-11.103q.006-2.653.038-5.306c.461-11.685.461-11.685-3.832-22.229-7.064-6.009-12.894-6.078-21.945-6.04l-3.993-.032-10.79-.03-11.295-.052-21.366-.074-24.334-.095Q373.018 717.05 348 717v-2l-1.941-.48c-6-1.619-10.26-3.555-15.059-7.52z"/><path fill="#d7c260" d="M803 528c5.72-.458 8.599.283 13 4 3.613 4.505 4.58 7.944 4.501 13.592l.017 2.257-.016 7.453q.005 2.679.016 5.358l-.014 14.543-.003 15.263q.002 12.833-.034 25.666l-.017 29.562q.013 14.263-.01 28.525-.008 6.045 0 12.09.005 7.15-.028 14.3a857 857 0 0 0 0 5.208c.035 14.176-1.04 28.417-6.1 41.808l-.774 2.1c-9.854 25.81-28.852 47.696-54.081 59.388-18.09 7.91-35.086 11.195-54.732 11.146l-5.488.01h-14.812c-5.175-.005-10.349 0-15.523.002q-13.017.005-26.035-.01-15.057-.015-30.114.003-12.939.014-25.878.006-7.724-.007-15.448.003-7.249.007-14.498-.01-2.664-.004-5.328.002c-2.418.006-4.835-.001-7.253-.011l-2.144.013c-3.634-.029-5.088-.19-8.204-2.267l1-3 1.58.492c3.09.648 5.982.634 9.14.635l2.045.005 6.781-.003 4.865.006q6.61.005 13.223 0h13.868q11.662.004 23.326-.005 13.437-.007 26.873.002 11.561.007 23.122.003 6.892-.003 13.786.001 6.5.004 12.999-.005 2.367 0 4.736.002c27.864 1.274 27.864 1.274 53.656-6.133l1-3 1.836-.078c7.9-.535 15.509-2.079 21.164-7.922l3.125-1.437L775 796l.438-2 .562-2 3.438-1.437c3.735-1.165 3.735-1.165 4.75-4.188L785 784l1.91-.395c2.244-.41 2.244-.41 3.356-2.453l.984-2.215 1.016-2.222L793 775h4l1-4h2l-.562-2.375C799 766 799 766 800 764l4 1 .375-2a107 107 0 0 1 1.625-6.625c1.298-5.055 1.637-10.182 2-15.375h2l1 2 1.438-3.562.808-2.004c1.797-5.8 1.944-11.83 2.106-17.852l.07-2.363q.07-2.454.136-4.908l.223-7.504q.068-2.394.133-4.787l.072-2.258c.084-3.453-.054-6.44-.986-9.762l.5-3.062c.425-3.35.39-5.652 0-8.938-.83-7.66-.954-16.638 1.5-24h-2q-.037-7.443-.055-14.886-.008-2.528-.02-5.054l-.023-7.306-.015-2.246c0-3.6.148-7.085.61-10.656.773-6.392.646-12.801.636-19.23q0-2.072.003-4.142.002-4.318-.006-8.636-.006-5.505.004-11.01.005-4.269 0-8.538 0-3.007.005-6.015c-.016-6.188-.172-12.165-1.139-18.281l-5-1-1-5h-6z"/><path fill="#03140b" d="M547.465 200.753l2.178-.008 7.169.012 5.16-.006 13.977.013 14.63.007q12.276.002 24.552.023 14.201.023 28.403.02 13.661 0 27.322.013 5.815.006 11.631.006 6.84.002 13.681.017 2.514.004 5.028.004 3.423 0 6.847.012l3.874.005C715 201 715 201 718 202l9.727.605c5.171.293 5.171.293 6.273 1.395l3.5.5c3.5.5 3.5.5 4.5 1.5l3.562-.137c4.734-.054 8.209 1.323 12.438 3.325l2.125.972c8.487 3.952 15.6 8.975 22.875 14.84l2.875 2.309c9.53 7.717 9.53 7.717 12.125 10.691-.25 2.75-.25 2.75-1 5l1.82.75c2.547 1.46 3.494 2.78 5.055 5.25l1.543 2.434L807 254l1.613 2.535c2.75 4.413 5.063 8.671 6.735 13.598.647 1.853 1.462 3.644 2.277 5.43 1.423 3.558 1.901 6.648 2.375 10.437a170 170 0 0 0 3 10 72 72 0 0 1 .125 4.563l.008 2.378C823 305 823 305 822 307c-.107 2.318-.147 4.64-.158 6.96l-.015 2.196-.032 7.32-.03 5.231q-.04 7.12-.068 14.237-.035 7.433-.076 14.867-.074 14.082-.138 28.166-.076 16.03-.16 32.06-.17 32.98-.323 65.963h-1l-.002-2.815q-.02-34.035-.13-68.069l-.064-32.918q-.003-14.36-.065-28.72l-.025-15.182c.468-29.08.468-29.08-5.714-57.296l-.827-2.354C807.45 260.619 798.813 248.12 787 236l-1.762-1.984C769.208 216.41 741.835 207.852 719 205a212 212 0 0 0-7.704-.16l-2.255-.016-7.432-.033-5.348-.03q-8.755-.043-17.511-.07l-3.013-.01q-14.07-.047-28.139-.074a9068 9068 0 0 1-35.953-.133q-12.653-.07-25.307-.08l-15.106-.059-14.203-.032q-2.604 0-5.206-.032c-10.309-.496-10.309-.496-19.347 3.648-3.552 4.42-3.637 7.132-3.669 12.617l-.025 2.356q-.036 3.87-.055 7.74l-.017 2.673q-.039 7.006-.06 14.013l-.112 14.445-.051 11.13a546 546 0 0 1-.046 5.321c-.503 11.883-.503 11.883 4.178 22.446 4.747 4.608 9.073 6.458 15.574 6.485l3.259.02 3.575.009 3.765.02q4.054.021 8.108.036l12.82.065q18.228.105 36.456.182 10.066.042 20.133.106 6.373.04 12.745.056l9.79.058 3.569.002 3.267.03 2.837.012C671 308 671 308 675 310H570v1l-13.313.375-3.767.152c-8.73.138-15.047-.945-21.92-6.527-7.412-8.833-6.852-18.724-6.727-29.582q.002-2.679-.003-5.358.001-5.584.058-11.167l.033-14.287.026-11.038q.012-2.635.007-5.269l.057-7.357-.015-2.177c.129-6.134 2.66-9.402 6.376-14.015 4.82-3.856 10.698-4 16.653-3.997"/><path fill="#150d0d" d="M222.61 524.71l2.308-.02 7.543-.026 5.253-.02q5.505-.017 11.01-.015l14.09-.061 10.85-.025q2.597-.005 5.193-.027l7.273-.002 2.154-.034c5.041.063 7.78 1.462 11.716 4.52l3 2v2l1.861.79c3.704 2.095 4.885 5.253 6.139 9.21.556 4.159.554 8.268.53 12.459l.026 3.723.019 10.04.042 10.52.06 19.896.094 29.258.01 2.166.019 4.271q.027 6.264.034 12.529.009 4.793.024 9.585l-.001 3.521.012 3.182.004 2.782c-.103 2.059-.103 2.059 1.127 3.068l.688 4.812c1.825 10.397 7.074 20.592 15.687 26.938L331 703v3c-8.979-3.154-14.338-10.766-18.417-19.086-6.224-14.359-5.013-31.872-4.994-47.148l-.028-11.893-.064-27.33-.068-25.198-.014-13.704q-.014-3.578-.03-7.154l.018-3.273c-.045-5.554-.387-9.372-3.403-14.214l-1-3c-1.749-1.084-1.749-1.084-4-2l-2.654-1.537c-3.843-1.68-7.086-1.893-11.2-1.867l-2.313-.02a789 789 0 0 0-7.524-.01q-2.627-.007-5.252-.015-5.494-.013-10.987.003c-4.69.011-9.38-.009-14.07-.038a1627 1627 0 0 0-10.837-.012q-2.594 0-5.187-.019a547 547 0 0 0-7.252.013l-2.155-.029c-4.834.072-7.056 1.302-10.569 4.531h-2c-2.038 4.227-2.255 7.703-2.267 12.37l-.014 2.22-.01 7.351q-.008 2.64-.02 5.28l-.024 14.346q-.001 4.493-.01 8.987a16388 16388 0 0 0-.026 31.428l-.051 29.162q-.038 12.56-.036 25.12l-.026 14.963c-.59 34.389-.59 34.389 8.297 67.335l1.046 2.488c4.645 10.788 10.538 20.014 18.141 28.95l1.71 2.117C243.984 797.511 258.297 805.871 273 812l-2 3c-10.412-1.634-20.278-8.194-27.59-15.613-1.474-1.558-1.474-1.558-3.91-2.887-2.238-1.343-3.846-2.498-5.5-4.5v-2l-1.75-.688c-2.906-1.695-4.23-3.6-6.25-6.312l-1.527-1.8c-5.654-6.808-9.479-14.36-13.473-22.2l-1.324-2.426c-2.193-4.067-3.376-7.89-4.184-12.398-.439-2.252-.439-2.252-1.512-4.531-1.169-3.154-1.361-5.917-1.542-9.27-.192-3.413-.355-6.127-1.438-9.375a173 173 0 0 1-.167-7.254l-.018-2.255q-.025-3.751-.04-7.503-.015-2.685-.034-5.372l-.085-17.659-.012-3.035q-.056-14.168-.089-28.335-.039-18.12-.16-36.24-.082-12.742-.094-25.483a1895 1895 0 0 0-.072-15.219q-.063-7.162-.039-14.324 0-2.625-.038-5.248c-.203-14.857-.203-14.857 4.211-19.99A74 74 0 0 1 208 530l3-3c3.626-2.477 7.372-2.296 11.61-2.29"/><path fill="#71d176" d="M554.361 203.158q2.653-.005 5.305-.018l14.37.051 15.087.028 25.36.088 29.215.083 31.214.063q4.467.011 8.935.016 7.062.012 14.125.064 2.572.015 5.146.015c31.145.01 61.287 9.472 83.882 31.452l2.297 2.11c18.487 17.466 30.232 44.418 31.15 69.785l.023 12.19q0 2.75.007 5.497l-.038 14.736-.023 15.476q-.011 12.96-.06 25.922l-.067 33.298q-.014 14.335-.045 28.669l-.01 6.148q-.014 8.74-.048 17.481-.009 2.65-.013 5.3-.007 3.604-.026 7.207v2.139c-.033 4.814-.033 4.814-1.147 7.042l-3-1q-.044-7.062-.062-14.125l-.006-2.129c-.02-9.833.136-19.624.8-29.44.265-4.355.21-8.508-.22-12.853-.542-6.214-.634-12.36-.594-18.593l.01-3.479q.01-3.707.027-7.415.026-5.886.036-11.773.037-16.725.105-33.451.04-10.262.055-20.524.009-3.888.03-7.775c1.135-21.774 1.135-21.774-4.181-42.443-.125-2.75-.125-2.75 0-5h-2l-.77-2.414c-2.538-8.043-2.538-8.043-6.23-15.586l-2-1-1.187-3c-2.937-7.187-8.222-12.849-14.196-17.668C784 237 784 237 781.5 234.438c-2.06-2.01-3.96-3.513-6.312-5.125L772 227v-2h-4v-2l-4-1v-2l-3.125-.875a84 84 0 0 1-6.875-2.25c-3.445-1.005-6.43-1.018-10-.875v-3h-4l-1-2c-8.01-1.948-16.48-2.247-24.687-2.687l-2.646-.147-2.491-.115-2.222-.104c-2.172-.036-2.172-.036-4.954 1.053-1.892-.116-1.892-.116-4.03-.43-5.176-.65-10.27-.714-15.482-.703l-2.945-.003q-3.06 0-6.118.006-4.67.005-9.341-.007-2.985 0-5.97.004l-2.804-.006c-4.563.017-8.811.281-13.31 1.139-2.512-.153-4.947-.493-7.437-.844-2.587-.266-2.587-.266-5.178.36-4.1.586-7.998.338-12.108.062-14.045-.796-28.094-.801-42.157-.818l-11.508-.058-8.964-.026a589 589 0 0 1-4.247-.024 534 534 0 0 0-5.903-.008l-3.374-.011c-3.613.424-6.019 1.5-9.124 3.367-1.284 1.984-1.284 1.984-2 4l-2 2c0-4.216 1.136-6.682 3.977-9.662 6.403-5.337 14.509-4.281 22.384-4.18"/><path d="M547.352 198.753l2.177-.008 7.185.012q2.582-.001 5.165-.006l14.001.013 14.647.007q12.293.002 24.584.023 14.225.023 28.449.02 13.676 0 27.352.013 5.826.006 11.65.006 6.851.002 13.701.017 2.52.004 5.039.004 3.428 0 6.854.012l3.882.005C715 199 715 199 717 200l6.625.313c5.916.303 11.502 1.191 17.25 2.625l2.108.514c1.692.446 3.359.989 5.017 1.548l1 2q-3.5.061-7 0l-1-1-3.5-.5c-3.5-.5-3.5-.5-4.5-1.5a207 207 0 0 0-7.375-.5c-7.225-.367-7.225-.367-10.625-1.5a173 173 0 0 0-6.95-.14l-2.157-.01q-3.585-.01-7.171-.011l-5.135-.015q-6.982-.019-13.965-.024-4.364-.005-8.727-.012-13.654-.02-27.308-.027-15.757-.007-31.513-.05-12.181-.034-24.363-.034-7.273 0-14.548-.025-6.846-.023-13.693-.01-2.508.002-5.016-.013c-13.222-.357-13.222-.357-24.829 5.309-3.527 4.476-3.93 8.166-3.947 13.777l-.03 2.342-.054 7.666-.035 5.352q-.029 5.614-.04 11.23l-.115 14.316-.051 11.064a454 454 0 0 1-.049 5.273c-.14 10.094-.155 18.872 6.696 27.042 7.343 5.794 14.963 5.586 24 5v-1q20.981-.035 41.962-.052 9.744-.007 19.487-.023 9.415-.016 18.83-.02 3.58-.003 7.16-.01c32.209-.071 32.209-.071 36.561 2.105l-1 3 1.836.629c8.454 3.108 16.096 7.61 22.164 14.371v2h2q1.443 2.809 2.875 5.625l1.617 3.164c6.71 14.287 5.791 29.616 5.738 45.027v6.923q-.003 7.217-.024 14.435l-.02 18.522q-.001 7.13-.013 14.26-.005 3.416-.006 6.833-.004 4.758-.022 9.514l.002 2.857-.013 2.612-.005 2.268C715 465 715 465 714 468c-.305 4.655-.305 4.655 1 9l.25 4.313c.448 4.726 2.102 6.6 5.75 9.687v2l1.687.813c2.525 1.296 4.95 2.612 7.313 4.187v2c-7.22-1.96-11.53-6.118-16-12-3.005-6.836-3.808-14.586-3-22l1-1a57.14 57.14 0 0 0 .127-4.055l.009-2.647-.007-2.927.006-3.064q.004-5.043-.002-10.084 0-3.489.003-6.977.002-7.322-.006-14.645-.006-9.405.004-18.809.005-7.208 0-14.414 0-3.469.002-6.937.003-4.84-.007-9.683l.007-2.92-.009-2.656-.001-2.314c-.012-1.96-.012-1.96-1.126-3.868l-.25-3.875c-1.196-11.605-7.568-23.125-16.504-30.523-12.187-8.69-25.964-10.922-40.59-10.826h-3.615q-4.866 0-9.732.017c-3.414.007-6.828-.003-10.242-.012l-34.808-.011q-9.636.025-19.27-.018c-3.39-.014-6.778-.017-10.167.006a951 951 0 0 1-11.35-.017l-3.345.047c-8.91-.118-16.116-2.88-22.565-9.163-3.755-6.31-6.165-11.216-6.095-18.75l-.027-2.33-.006-7.545q-.008-2.644-.02-5.29-.014-5.526.01-11.054l-.042-14.121-.012-10.913q0-2.602-.02-5.205c-.127-17.472-.127-17.472 5.65-23.417l1.443-1.496c5.356-4.942 10.844-5.754 17.909-5.751"/><path fill="#0e0e0b" d="M710 681l3 1c-6.823 15.894-16.91 25.615-32.899 32.065-6.42 2.302-12.298 2.49-19.065 2.433l-3.778.017q-4.034.016-8.067.001c-4.258-.015-8.516-.001-12.775.016l-24.803.03a8135 8135 0 0 0-31.602.05q-6.34.02-12.681.002c-3.252-.006-6.503.007-9.755.017l-3.515-.023c-7.7.048-13.782.624-19.872 5.767-4.286 5.142-5.633 8.757-5.576 15.441l-.016 2.338.006 7.623q-.003 2.659-.01 5.317-.005 5.566.017 11.133l-.01 14.247v10.977q.004 2.625-.008 5.252l.02 7.351-.018 2.178c.059 4.67.73 7.916 3.407 11.768 5.075 3.456 8.38 4.501 14.637 4.519l2.233.023 7.356.004q2.648.014 5.294.031l14.335.03 14.995.052 28.378.074 32.314.095q33.229.121 66.458.172l1 2h-2v2q-34.8.177-69.602.26l-32.317.117q-14.085.076-28.171.093l-14.914.059q-7.022.05-14.045.037-2.574 0-5.147.03c-9.833.105-17.03-.04-24.425-7.156-3.803-3.97-3.676-8.147-3.67-13.402l-.02-2.421-.025-7.918-.02-5.515q-.017-5.78-.015-11.563l-.061-14.788-.025-11.394a754 754 0 0 0-.027-5.45 613 613 0 0 1-.002-7.639l-.034-2.256c.075-6.28 2.036-10.46 6.336-15.02l1.746-1.386 1.754-1.426c11.25-8.43 29.748-5.499 43.067-5.422l7.398.016q9.694.021 19.39.065 15.524.063 31.047.096 5.396.017 10.793.045l6.665.02 2.992.02c16.948.409 16.948.409 31.832-6.29L690 704a322 322 0 0 1 5.063-3.937c3.95-3.108 6.402-5.773 8.937-10.063l2.125-2.062c2.104-2.175 2.926-4.09 3.875-6.938"/><path fill="#c65659" d="M209 532c1 3 1 3 .079 5.227-1.367 3.513-1.334 6.37-1.34 10.138l-.011 2.219-.003 7.345-.015 5.274-.012 14.326q0 5.992-.008 11.986-.016 14.157-.006 28.315l-.027 29.117q-.026 12.528-.02 25.056l-.015 14.938q-.018 7.041.002 14.082.004 2.565-.009 5.132c-.044 9.84.66 18.967 2.742 28.6C211 737 211 737 211 741h2l.25 3.438c.65 5.031 2.473 9.063 4.75 13.562l1.54 3.11c3.354 6.525 7.022 12.261 11.76 17.867C233 781 233 781 235 784h3v4h2v2l1.875.938L246 793v2l1.578.754c2.502 1.287 4.921 2.691 7.347 4.115 5.544 3.246 10.934 6.166 17.075 8.131v2l2.566.379c4.735.856 9.283 2.241 13.899 3.586 12.304 3.067 24.72 3.328 37.315 3.294l5.184.01h13.932l14.63.002q12.264.005 24.526-.01 14.172-.015 28.342.003 12.198.014 24.396.006 7.273-.007 14.545.003 6.824.007 13.647-.01 2.503-.004 5.006.002l6.83-.011 3.86-.002c5.255-.398 8.918-2.484 13.322-5.252-.125 1.75-.125 1.75-1 4-4.499 3.69-8.05 4.579-13.72 4.501l-2.297.017c-2.531.014-5.061-.001-7.592-.016q-2.728.005-5.457.016c-4.936.014-9.873.003-14.81-.014l-15.533-.003q-13.058.002-26.115-.034a7885 7885 0 0 0-30.1-.017c-9.677.01-19.352.004-29.028-.01q-6.158-.008-12.314 0-7.275.005-14.55-.028a890 890 0 0 0-5.307 0c-14.206.035-27.35-1.473-40.74-6.6l-2.41-.908A104.5 104.5 0 0 1 243 795l-2.16-1.723C219.445 775.505 206.716 747.327 204 720c-.791-12.874-.55-25.824-.504-38.716l.003-15.087q-.002-12.633.034-25.265l.017-29.191q-.014-14.093.01-28.187.007-5.98 0-11.962-.005-7.023.028-14.046.008-2.574 0-5.15l.024-7.027.008-3.97c.405-3.623 1.187-5.52 3.38-8.399z"/><path fill="#070f0e" d="M680 311c6.924 2.143 12.438 5.104 18.121 9.547 1.957 1.557 1.957 1.557 4.504 3.14 7.29 7.099 10.258 17.875 13.375 27.313l1 3c.096 1.725.133 3.453.138 5.18l.017 3.25.003 3.565.015 3.756q.016 4.044.026 8.088l.053 12.796.15 36.39q.027 10.048.087 20.096l.04 10.631.054 11.864-.009 3.548c.067 6.481.322 11.51 4.961 16.48 5.1 3.901 7.93 4.51 14.232 4.533l2.43.02q3.99.028 7.979.041l2.75.013q7.206.03 14.412.044l14.89.085 11.444.038q2.745.008 5.49.035l7.683.017 2.288.039c4.927-.049 7.395-1.025 10.867-4.509 1.763-2.126 1.763-2.126 3-4 1.188 1.688 1.188 1.688 2 4-1.836 4.59-4.756 6.65-9 9-2.868.38-5.345.549-8.205.518l-2.427.02a650.13 650.13 0 0 1-7.9-.007l-5.513.012q-5.77.008-11.54-.022a1546.81 1546.81 0 0 0-14.768.015h-11.38q-2.722-.005-5.445.01a604.38 604.38 0 0 1-7.617-.028l-2.258.024c-5.135-.083-7.94-1.407-11.947-4.542l-3-2v-2l-1.875-.812C717 489 717 489 715 486c-.379-2.191-.379-2.191-.562-4.562-.253-3.345-.253-3.345-1.438-6.438-.134-3.673-.167-6.499 1-10 .092-1.407.13-2.818.134-4.228l.013-2.612-.002-2.857.01-3.017q.013-4.954.013-9.907l.01-6.896q.009-7.242.007-14.484l.031-18.49q.015-7.13.013-14.26 0-3.405.013-6.812c.053-17.178-.099-32.35-9.242-47.437v-3h-2v-2l-1.687-.687C699 327 699 327 696.938 324.75c-4.865-5.092-12.018-8.697-18.938-9.75z"/><path fill="#41b0ce" d="M321.552 203.628q2.698-.004 5.396-.011l14.496.013 15.22.005q12.754 0 25.51.029l29.488.018q14.216-.006 28.432.011 6.04.007 12.081.004 7.097-.002 14.194.022 2.604.006 5.21.002l7.1.018 2.09-.011c3.58.033 6.181.327 9.231 2.272-2.793.8-5.165 1.084-8.062 1-3.834-.051-7.617.092-11.441.354-14.444.948-28.916.745-43.382.69a7067 7067 0 0 0-15.013-.035q-21.323-.037-42.645-.105-11.829-.037-23.656-.052-7.44-.01-14.878-.044-4.647-.016-9.295-.016-2.129-.003-4.257-.017c-13.845-.088-26.45 1.008-39.371 6.225l-6.832 2.191C259.176 220.664 245.192 229.212 238 240a81 81 0 0 1-3.25 2.687c-6.372 5.366-10.274 11.826-13.75 19.313h-2l-.437 1.937C218 266 218 266 217 267a70 70 0 0 0-.562 4.062L216 275h-3c-1.621-4.863.843-8.538 3-13 14.632-26.012 38.042-45.276 66.535-53.93 13.17-3.315 25.494-4.507 39.017-4.442"/><path fill="#110b0d" d="M274 813l1.633.516L285 816l1.956.508c19.166 4.786 38.751 4.07 58.354 4.034l14.855.033 28.03.045q25.178.011 50.355.085 8.827.025 17.655.019 5.463.001 10.925.017 2.54.003 5.077-.003 3.453-.007 6.905.01l3.908.001C486 821 486 821 488 823c-3.65 2.3-6.741 2.25-10.997 2.247l-2.135.008c-2.36.005-4.72-.003-7.08-.012l-5.075.006a4224 4224 0 0 1-13.785-.013l-14.41-.007q-12.099-.002-24.196-.023-14.001-.023-28.002-.02-13.455 0-26.91-.013-5.734-.006-11.467-.006-6.745-.002-13.489-.017-2.48-.004-4.96-.004-3.375 0-6.75-.012l-3.823-.005C312 825 312 825 310 824a269 269 0 0 0-7.562-.437c-5.993-.326-11.657-.856-17.438-2.563l-2.398-.691c-4.036-1.248-7.422-2.406-10.602-5.309z"/><path fill="#262316" d="M819 722h3c1.083 6.114.771 10.655-.812 16.625l-.542 2.195A141 141 0 0 1 817 753h-2l-.41 2.02c-1.812 7.759-5.067 13.48-9.59 19.98l-2.125 3.375c-2.053 2.874-4.317 5.195-6.875 7.625l-2.187 2.313C792 790 792 790 790 790l-.75 1.75c-1.433 2.58-3.034 4.311-5.25 6.25h-2l-.684 1.781C776.292 808.25 762.178 812.657 753 815v2l-2.371.621-3.067.817-3.058.808c-2.422.514-2.422.514-3.504 1.754a88 88 0 0 1-4.437.5c-3.408.291-3.408.291-6.563 1.5a102.15 102.15 0 0 1-5.562.125l-3.004.008C719 823 719 823 718 822c-2.303-.11-4.61-.147-6.916-.158l-2.217-.015-7.412-.032-5.291-.03q-7.206-.04-14.41-.068-7.523-.035-15.043-.076-14.253-.074-28.507-.138-16.222-.076-32.444-.16-33.38-.17-66.76-.323v-1l2.823-.004q34.109-.055 68.216-.18l32.99-.087q14.388-.019 28.775-.084l15.217-.037q7.183 0 14.365-.05 2.616-.013 5.231-.004c15.292.043 29.785-2.28 44.133-7.804l2.38-.906c25.365-9.967 45.14-29.594 56.753-54.18 4.752-11.332 7.295-22.562 9.117-34.664"/><path fill="#130a0b" d="M258 525q7.525-.149 15.051-.22 2.557-.03 5.116-.082l7.372-.089 2.292-.062c5.21-.002 7.97 1.136 12.169 4.453l3 2v2l1.861.79c3.704 2.095 4.885 5.253 6.139 9.21.556 4.159.554 8.268.53 12.459l.026 3.723.019 10.04.042 10.52.06 19.896.094 29.258.01 2.166.019 4.271q.027 6.264.034 12.529.009 4.793.024 9.585l-.001 3.521.012 3.182.004 2.782c-.103 2.059-.103 2.059 1.127 3.068l.688 4.813c1.825 10.396 7.074 20.59 15.687 26.937L331 703v3c-8.979-3.154-14.338-10.766-18.417-19.086-6.224-14.359-5.013-31.872-4.994-47.148l-.028-11.893-.064-27.33-.068-25.198-.014-13.704q-.014-3.578-.03-7.154l.018-3.273c-.045-5.554-.387-9.372-3.403-14.214l-1-3c-1.847-1.115-1.847-1.115-4-2l-1.795-1.044c-7.391-3.917-15.126-3.626-23.267-3.706q-2.179-.042-4.358-.09A1028 1028 0 0 0 259 527z"/><path fill="#3aa7c3" d="m210 276 3 1c-.432 3.457-1.077 6.173-2.5 9.375-4.469 11.502-2.641 26.839-2.614 39.057v5.356q.001 7.193.013 14.383.007 7.545.008 15.09.004 14.253.021 28.506.015 16.24.022 32.481.016 33.375.05 66.752l-3-1c-1.488-2.976-1.133-5.663-1.14-8.984l-.01-2.204q-.01-3.676-.011-7.353l-.015-5.258q-.019-7.163-.024-14.327-.004-4.485-.012-8.969-.02-14.054-.027-28.107-.007-16.175-.05-32.349-.033-12.524-.034-25.048 0-7.466-.025-14.933-.023-7.049-.01-14.097.002-2.565-.013-5.128c-.05-8.902.347-17.543 1.706-26.352l.352-2.299c.916-5.396 2.457-10.448 4.313-15.592"/><path fill="#5dc464" d="M815 291h3c2.606 8.92 2.274 17.864 2.243 27.064l.006 5.492-.013 14.85-.007 15.548q-.002 13.04-.023 26.083-.023 15.09-.02 30.182 0 14.518-.013 29.036-.006 6.18-.006 12.362-.002 7.266-.017 14.53a2714 2714 0 0 0-.004 5.344q0 3.634-.012 7.268l.004 2.157c-.024 4.856-.024 4.856-1.138 7.084l-3-1q-.044-7.062-.062-14.125l-.006-2.129c-.02-9.833.136-19.624.8-29.44a79.57 79.57 0 0 0-.218-12.85c-.545-6.234-.642-12.404-.612-18.66l.005-3.498q.006-3.728.018-7.454.019-5.91.024-11.82.018-12.543.051-25.086l.053-27.107q.01-6.798.035-13.597l.01-7.16.015-3.223c0-6.67-.393-13.22-1.113-19.851"/><path fill="#958037" d="M715 671l3 2c.692 4.27-.713 6.481-3 10-1.296 2.898-2.115 5.511-2.812 8.625-1.432 4.069-2.527 4.37-6.188 6.375a375 375 0 0 0-4 6l-2.687 2.125c-2.444 1.981-2.985 2.814-3.313 5.875l-6.152.684c-1.86.135-1.86.135-2.848 1.316l-3.5.438-3.5.562-1 2c-3.994 1.637-7.41 2.25-11.706 2.252l-3.373.016-3.656-.013-5.903.017q-3.16.006-6.32.002a2898.2 2898.2 0 0 0-13.186.03q-18.744.068-37.487.077-10.362.006-20.724.055-6.555.03-13.108.012c-3.354-.004-6.707.02-10.06.038l-3.67-.025-3.355.033-2.915.004c-3.275.648-4.472 1.935-6.537 4.502l-.5 2.125c-.5 1.875-.5 1.875-2.437 3L532 730l-2 2c-.806-2.298-1.214-3.493-.25-5.781 3.984-5.479 8.427-8.91 15.25-10.219 1.757-.087 3.518-.12 5.277-.118l3.24-.003 3.54.01h7.68l4.118.003 12.779-.017 2.183-.006 4.42-.013 29.736-.031q10.037.018 20.073-.032l10.6-.004c20.7.107 36.763-1.135 52.565-15.848 5.144-5.363 8.1-11.063 10.789-17.941l1.094-2.621c1.054-2.768 1.498-5.452 1.906-8.379"/><path fill="#ccb247" d="M803 528c5.72-.458 8.599.283 13 4 3.653 4.54 4.576 8.014 4.481 13.707l.01 2.292-.037 7.573q-.001 2.72.002 5.44l-.05 14.751-.033 15.423a10251 10251 0 0 1-.085 29.197l-.087 33.242A32922 32922 0 0 1 820 722h-1l-1-26-1 30h-1l.016-3.058q.026-5.624.039-11.249.008-2.432.02-4.865l.023-7 .015-2.191c0-3.392-.225-6.372-1.113-9.637l.5-3.062c.425-3.35.39-5.652 0-8.938-.83-7.66-.954-16.638 1.5-24h-2q-.037-7.443-.055-14.886-.008-2.528-.02-5.054l-.023-7.306-.015-2.246c0-3.6.148-7.085.61-10.656.773-6.392.646-12.801.636-19.23q0-2.072.003-4.142.002-4.318-.006-8.636-.006-5.505.004-11.01.005-4.269 0-8.538 0-3.007.005-6.015c-.016-6.188-.172-12.165-1.139-18.281l-5-1-1-5h-6z"/><path fill="#0e0b03" d="M740.68 524.805l2.463.008 7.732.062q2.632.016 5.266.027 6.43.035 12.859.098v1c-8.25 1.057-16.45 1.29-24.762 1.43-7.758.226-14.227 1.342-21.05 5.133-6.386 7.114-6.768 15.883-6.702 25.012l-.022 3.69q-.02 3.94-.011 7.882l-.028 12.485-.045 19.754q-.011 17.685-.085 35.37-.025 6.195-.019 12.392l-.02 9.536.012 3.436c-.03 5.982-.522 11.149-2.268 16.88h-3l.48-1.706c3.867-17.058 1.579-37.38 1.512-54.77l-.011-3.31a9775 9775 0 0 0-.152-30.846q-.055-8.52-.075-17.04-.012-3.21-.04-6.422l-.039-8.944-.037-2.62c.023-7.25 1.05-14.413 5.632-20.217l2.543-2.125 2.519-2.187c5.59-3.798 10.823-4.095 17.348-4.008"/><path fill="#0b0903" d="M710 681l3 1c-6.823 15.893-16.905 25.596-32.88 32.068-6.524 2.339-12.52 2.47-19.394 2.386l-3.877.002c-3.473.001-6.945-.022-10.417-.05l-10.926-.033a5095 5095 0 0 1-20.643-.085l-23.522-.087L543 716v-1c6.851-1.777 13.068-2.273 20.128-2.211l3.261.004 10.603.047 7.416.016q9.744.021 19.488.065 15.583.063 31.166.096 5.424.017 10.846.045l6.705.02 3.01.02c16.971.413 16.971.413 31.877-6.29L690 704a322 322 0 0 1 5.063-3.937c3.95-3.108 6.402-5.773 8.937-10.063l2.125-2.062c2.104-2.175 2.926-4.09 3.875-6.938"/><path fill="#112a18" d="M787 235c3.619-.329 5.395-.446 8.375 1.75C797 239 797 239 797 243l1.82.75c2.547 1.46 3.494 2.78 5.055 5.25l1.543 2.434L807 254l1.613 2.535c2.75 4.413 5.063 8.671 6.735 13.598.647 1.853 1.462 3.644 2.277 5.43 1.423 3.558 1.901 6.648 2.375 10.437a170 170 0 0 0 3 10 72 72 0 0 1 .125 4.563l.008 2.378C823 305 823 305 822 307c-.107 2.318-.147 4.64-.158 6.96l-.015 2.196-.032 7.32-.03 5.231q-.04 7.12-.068 14.237-.035 7.433-.076 14.867a38694 38694 0 0 0-.138 28.166q-.076 16.03-.16 32.06-.17 32.98-.323 65.963h-1l-.002-2.815q-.02-34.035-.13-68.069l-.064-32.918q-.003-14.36-.065-28.72l-.025-15.182c.468-29.08.468-29.08-5.714-57.296l-.827-2.354c-5.332-14.932-13.084-27.04-24.083-38.416C787 236 787 236 787 235"/><path fill="#816d2e" d="M738 528v1h-5v2l-5 2 1 3-2.875-.187L723 536c-3.716 5.575-3.205 12.144-3.352 18.648l-.07 2.82q-.07 2.952-.136 5.905l-.223 8.873c-.235 9.642-.185 19.103.536 28.723.494 7.206.393 14.438.375 21.656l.007 7.824c.005 8.89-.127 17.776-.457 26.66l-.067 2.572c-.263 5.92-.263 5.92-2.145 8.065L716 669q-.142-23.993-.207-47.985a6542 6542 0 0 0-.095-22.282q-.06-9.716-.074-19.432a1464 1464 0 0 0-.047-10.28l-.031-11.503-.044-3.405c.041-7.828 1.087-15.4 6.568-21.367l2.055-1.308 2.07-1.38c4.156-2.437 7.007-2.135 11.805-2.058"/><path fill="#1b1214" d="M205 726h1l.375 2.578C209.842 748.946 218.637 767.295 232 783l1.71 2.117C243.984 797.511 258.297 805.871 273 812l-2 3c-10.412-1.634-20.278-8.194-27.59-15.613-1.474-1.558-1.474-1.558-3.91-2.887-2.238-1.343-3.846-2.498-5.5-4.5v-2l-1.75-.687c-2.906-1.696-4.23-3.6-6.25-6.313l-1.527-1.8c-5.654-6.808-9.479-14.36-13.473-22.2l-1.324-2.426c-2.222-4.12-3.367-7.995-4.238-12.547-.402-2.175-.402-2.175-1.563-4.652-1.484-4.03-1.505-7.839.125-11.812z"/><path fill="#250b0b" d="M331 706c4.86.477 7.917 1.383 12 4 12.859 5.332 27.319 4.279 40.941 4.23h6.653q6.936-.003 13.871-.024l17.795-.02q6.852-.001 13.704-.013 3.283-.005 6.566-.006 4.57-.004 9.14-.022l2.744.002 2.51-.013 2.179-.005c2.122-.064 2.122-.064 4.897-1.129 8.095-.659 16.424-.126 24 3l1 3-2.635-.49c-3.131-.475-6.049-.648-9.212-.668l-3.467-.03-3.76-.017-3.992-.03q-5.401-.04-10.803-.068-5.65-.035-11.303-.076-10.694-.074-21.387-.138-12.178-.076-24.355-.16-25.042-.17-50.086-.323v-2l-1.941-.48c-6-1.619-10.26-3.555-15.059-7.52z"/><path fill="#a74c4f" d="M209 532c1.208 3.623.543 4.641-1 8h-2v180h-2q-.106-35.465-.155-70.93-.022-16.467-.071-32.934-.046-14.35-.056-28.702-.004-7.6-.035-15.2-.03-7.151-.022-14.303-.001-2.626-.019-5.253l-.003-7.167-.026-2.102c.04-4.295.768-6.988 3.387-10.409z"/><path fill="#071b28" d="M233 235l4 1-1.434 1.293c-15.399 14.559-25.992 35.642-29.215 56.573l-.385 2.493c-1.259 8.748-1.408 17.406-1.398 26.23l-.031 5.299a3165 3165 0 0 0-.043 14.184l-.06 14.898-.095 28.122-.117 32.054A41813 41813 0 0 0 204 483h-1q-.106-37.734-.155-75.469-.022-17.52-.071-35.042-.046-15.271-.056-30.544-.004-8.085-.035-16.171-.03-7.614-.022-15.227-.001-2.791-.019-5.583a840 840 0 0 1-.003-7.637l-.026-2.217c.045-5.292 1.331-9.231 3.387-14.11l1.395-4.148C210.147 268.6 213.122 261.269 218 254l1.5-2.555a40 40 0 0 1 4.313-5.82l1.558-1.777L227 242q1.69-1.965 3.375-3.937z"/><path fill="#030c04" d="M822 305h1v183l-2 1c-1.006-4.158-1.112-8.036-1.089-12.307l.008-2.2q.016-3.638.043-7.277l.025-5.224q.034-7.087.08-14.175.045-7.41.083-14.823.068-12.443.147-24.884.09-14.4.162-28.798.072-13.84.155-27.68.035-5.898.065-11.794.035-6.935.083-13.87.016-2.55.028-5.101.017-3.47.045-6.94l.024-3.93C821 307 821 307 822 305"/><path fill="#010f12" d="M202 303h1l1 184c-3-3-3-3-3.372-6.14l.005-3.958-.01-2.204.02-7.33q0-2.625-.006-5.249l.026-14.268.015-14.914q.006-12.525.04-25.048l.044-32.173.03-27.63q.007-4.447.01-8.896.008-6.982.03-13.966.007-2.567.008-5.134.004-3.495.02-6.992l.009-3.957C201 306 201 306 202 303"/><path fill="#1f1812" d="M542.188 715.375L545 716l-1.75.863-6.25 3.324-2 1.106c-4.068 3.472-5.825 7.37-6.501 12.546q-.03 2.101 0 4.204l-.017 2.339.022 7.59q0 2.655-.005 5.308 0 5.55.034 11.098l.013 14.2.014 10.95q.006 2.618 0 5.236l.036 7.322-.014 2.168c.069 4.632.96 7.82 3.418 11.746 2.548 1.881 2.548 1.881 5 3l-1 4c-4.603-1.534-7.388-3.592-10.095-7.635-1.303-3.405-1.2-6.732-1.196-10.327l-.02-2.421-.025-7.918-.02-5.515q-.017-5.78-.015-11.563l-.061-14.788-.025-11.394a754 754 0 0 0-.027-5.45 613 613 0 0 1-.002-7.639l-.034-2.256c.075-6.28 2.036-10.46 6.336-15.02l1.746-1.386 1.754-1.426c4.398-3.296 4.398-3.296 7.871-2.887"/><path fill="#d5b945" d="M745 813a647 647 0 0 1-4.75 1.5l-2.672.844C735 816 735 816 731 816v2c-4.59.898-9.02 1.138-13.68 1.114h-2.284c-2.515 0-5.03-.009-7.544-.016l-5.422-.005q-5.829-.005-11.658-.018-9.214-.019-18.429-.024-19.554-.018-39.108-.051l-42.24-.053q-9.164-.008-18.327-.029-5.694-.01-11.387-.013-2.644-.003-5.288-.01-3.604-.01-7.207-.009l-2.122-.01c-2.645.005-5.02.045-7.58.756L537 820l-3-2 1-3 1.58.492c3.09.648 5.982.634 9.14.635l2.045.005 6.781-.003 4.865.006q6.61.005 13.223 0h13.868q11.662.004 23.326-.005 13.437-.007 26.873.002 11.561.007 23.122.003 6.892-.003 13.786.001 6.5.004 12.999-.005 2.367 0 4.736.002c15.807.02 31.993-.158 47.43-3.828 2.384-.327 3.954-.042 6.226.695"/><path fill="#695b24" d="M715 671l3 2c.692 4.27-.713 6.481-3 10-1.296 2.898-2.115 5.511-2.812 8.625-1.432 4.069-2.527 4.37-6.188 6.375a375 375 0 0 0-4 6l-2.687 2.125c-2.444 1.981-2.985 2.814-3.313 5.875l-6.152.684c-1.86.135-1.86.135-2.848 1.316l-3.5.438-3.5.562-1 2a101.38 101.38 0 0 1-6 2l-1-1a84 84 0 0 0-4.942-.158l-3.242-.03-3.588-.017-3.754-.03a5496 5496 0 0 0-10.22-.068q-5.336-.035-10.67-.076-10.11-.074-20.22-.138-11.506-.076-23.013-.16-23.675-.17-47.351-.323v-1l1.973.001q23.854.011 47.708-.081l23.073-.04q10.065.012 20.13-.046l10.64-.014c20.737.082 36.857-1.14 52.687-15.879 5.144-5.363 8.1-11.063 10.789-17.941l1.094-2.621c1.054-2.768 1.498-5.452 1.906-8.379"/><path fill="#102e19" d="M680 311c6.924 2.143 12.438 5.104 18.121 9.547 1.957 1.557 1.957 1.557 4.504 3.14 7.29 7.099 10.258 17.875 13.375 27.313l1 3c.09 1.7.122 3.404.12 5.106l.004 3.2-.01 3.51v3.695q-.001 5.018-.013 10.034l-.008 10.486q-.005 9.93-.021 19.858-.015 11.303-.022 22.607-.016 23.252-.05 46.504h-1l-.004-1.917q-.056-23.112-.18-46.223a6701 6701 0 0 1-.087-22.353q-.019-9.744-.084-19.488l-.037-10.315-.062-11.527.015-3.437c-.086-6.515-.812-10.382-4.561-15.74-.941-2.477-.941-2.477-1.562-4.625-1.078-3.48-2.519-6.267-4.438-9.375v-3h-2v-2l-1.687-.687C699 327 699 327 696.938 324.75c-4.865-5.092-12.018-8.697-18.938-9.75z"/><path fill="#020d10" d="M486 305l2 1c-1.75 3.875-1.75 3.875-4 5a89 89 0 0 1-5.024.12l-3.221.004-3.548-.01h-3.725q-5.064-.001-10.128-.013-5.289-.007-10.578-.008-10.02-.005-20.038-.021-11.406-.016-22.81-.022-23.464-.016-46.928-.05v-2h123v-2l5-2"/><path fill="#cb4c4a" d="M206 540h1c1.11 8.867 1.114 17.66 1.066 26.579l-.014 4.98q-.015 5.34-.038 10.678l-.048 16.927-.137 48.12q-.053 13.305-.07 26.613-.014 8.39-.06 16.78l-.02 10.502a710 710 0 0 1-.023 4.817c-.076 9.55.69 18.373 2.7 27.724C211 737 211 737 211 741h2l-2 6c-1.7-3.112-2.69-6.13-3.562-9.562l-.754-2.88c-2.054-10.689-1.792-21.496-1.706-32.33l.03-5.325q.04-7.183.093-14.366.05-7.522.092-15.046.085-14.226.18-28.452.107-16.205.203-32.409.203-33.315.424-66.63"/><path fill="#0f222d" d="M204 485c4 4.75 4 4.75 4 7 4.266 2.079 8.162 2.305 12.82 2.319l2.337.03 7.613.065q2.646.028 5.292.059l13.903.128 14.197.141q13.92.144 27.838.258v1h-42v2h18v1l-23.06.33q-3.918.044-7.838.123l-11.29.133-3.52.094c-7.575.003-11.884-1.3-17.292-6.68l-2-2c.375-3.125.375-3.125 1-6"/><path fill="#72db79" d="M818 302h1v186l-3-1q-.037-6.045-.055-12.091-.012-3.023-.033-6.044c-.025-6.52.064-13.01.436-19.52.814-14.436.871-28.877.955-43.33q.036-5.508.076-11.015.074-10.374.138-20.748.076-11.834.16-23.668.169-24.292.323-48.584"/><path fill="#1c5e7c" d="M450.21 305.297l6.954.21c7.972.239 15.903.621 23.836 1.493v1H353c3.386-2.258 4.494-2.241 8.455-2.211l3.393.01 3.683.04 3.82.017q5.048.022 10.098.065l17.895.106 3.892.018c7.78.014 15.495-.21 23.257-.709 7.585-.463 15.126-.3 22.717-.04"/><path fill="#040e07" d="M556 309q20.981-.035 41.962-.052 9.744-.007 19.487-.023 9.415-.016 18.83-.02 3.58-.003 7.16-.01c32.209-.071 32.209-.071 36.561 2.105l-1 3a546 546 0 0 1-5.062-.375l-2.848-.21C668 313 668 313 664.865 311.987c-4.406-1.125-8.273-1.247-12.791-1.198l-2.625.004-8.547.047-5.99.016q-7.88.021-15.76.065-12.574.063-25.148.096-4.362.016-8.723.045c-9.817.044-19.498-.145-29.281-1.062z"/><path fill="#242215" d="M779.328 524.762l2.885-.025q2.995-.02 5.99-.032 3.058-.018 6.115-.062l8.885-.069 2.753-.053c4.174.015 6.398.059 9.969 2.38L818 529l3 2c.875 1.938.875 1.938 1 4-1.437 1.75-1.437 1.75-3 3l-1.687-2.812c-2.395-3.301-3.682-4.479-7.313-6.188a62 62 0 0 0-7.452-.432l-2.22-.031-7.223-.049-5.023-.054-13.192-.104-13.474-.121L735 528v-1l2.152-.076 9.785-.361 3.385-.12 3.33-.127 3.031-.11c2.552-.159 5.034-.401 7.568-.71 5.029-.58 10.02-.693 15.077-.734"/><path fill="#d24f4c" d="M493 812l1 3c-5.334 4.594-8.526 5.132-15.48 5.082l-1.965-.01q-3.256-.019-6.513-.05l-4.672-.03q-6.34-.04-12.68-.093l-13.253-.092q-12.547-.085-25.096-.18-14.284-.107-28.57-.203Q356.386 819.22 327 819c3.54-2.36 4.98-2.244 9.174-2.227h3.917l4.307.032 4.529.009q4.878.009 9.758.036l15.429.048 35.546.112 32.56.097q7.67.016 15.338.057l9.546.026q2.212.005 4.425.021l6.043.016 3.416.014c4.918-.393 8.231-2.16 12.012-5.241"/><path fill="#1a2f1e" d="M819 486l3 3c-1.48 4.21-2.895 6.627-6.636 9.068-3.257 1.284-6.359 1.198-9.805 1.162h-2.191q-2.295-.006-4.592-.024l-6.919-.02c-8.002-.02-15.9-.245-23.857-1.186v-1l-37-1v-1l3.041-.011q14.192-.056 28.383-.173l14.592-.087 14.083-.097q2.685-.022 5.371-.024l7.527-.062 2.24.015c4.86-.098 7.35-1.108 10.763-4.561 1.312-2.117 1.312-2.117 2-4"/><path fill="#5fb96a" d="M554.615 203.205q2.692.003 5.383-.003l14.564.088 15.239.056 28.835.15 32.836.152L719 204v1H538v3l-2.875 1.25c-3.229 1.808-3.848 2.452-5.125 5.75l-2 2c0-4.206 1.132-6.684 3.962-9.665 6.451-5.377 14.722-4.252 22.653-4.13"/><path fill="#1c1216" d="M219.385 524.757l2.599-.01 2.778.023h2.868q2.994.006 5.988.024l9.204.02q2.907.007 5.815.018l2.796.003c6.45.049 6.45.049 7.567 1.165l6.879.316 2.08.063q3.302.098 6.603.183l4.467.131q5.486.161 10.971.307v1l-2.852.011q-13.308.056-26.616.173l-13.684.087-13.208.097q-2.519.023-5.036.024l-7.06.062-2.099-.015c-4.772.103-6.97 1.389-10.445 4.561h-2l-2 5-3-2a792 792 0 0 1 4.25-4.375l2.39-2.46c3.457-3.171 6.053-4.417 10.745-4.408"/><path fill="#12241c" d="M532 204l2 3-2.459 2.51c-2.947 3.558-3.255 6.819-3.2 11.331l-.032 2.308-.016 7.5q-.02 2.61-.046 5.22l-.054 13.7-.082 13.997L528 291h-1l-1-37h-1q-.149-8.594-.22-17.187-.03-2.922-.082-5.843a759 759 0 0 1-.089-8.415l-.062-2.624c-.003-6.48 1.723-10.006 6.203-14.806z"/><path fill="#b09340" d="M528 730h2l-.013 2.852q-.062 13.308-.09 26.616-.015 6.843-.048 13.684-.032 6.604-.039 13.208-.005 2.519-.021 5.036l-.016 7.06-.022 2.099c.017 3.962.647 6.843 2.249 10.445v3l-3-1c-1.206-3.62-1.132-6.918-1.114-10.684v-2.366l.016-7.743.005-5.368q.006-7.065.024-14.13.014-7.209.02-14.418.016-14.145.049-28.291"/><path fill="#d6bd50" d="M803 528c5.72-.458 8.553.362 13 4 2.392 2.462 2.97 3.712 3.323 7.176l-.074 3.796-.028 2.1-.147 6.85q-.042 2.379-.08 4.758l-.252 12.508-.24 12.769L818 607h-2l.007-2.338q.03-10.945.045-21.89.007-5.625.023-11.252.016-5.436.02-10.874.003-2.066.01-4.133c.027-6.926-.01-13.666-1.105-20.513l-5-1-1-5h-6z"/><path fill="#0f0e0d" d="M542.188 715.375L545 716l-1.754.875L541 718l-1.965.938c-6.157 3.316-8.905 7.448-11.035 14.062-.668 5.486-.705 10.918-.687 16.438a809 809 0 0 1-.052 6.553 520 520 0 0 0-.021 5.89C527 765 527 765 525 768q-.149-7.926-.22-15.85-.03-2.694-.082-5.387l-.089-7.767-.062-2.41c-.003-6.474 1.743-10.713 6.27-15.512l1.745-1.386 1.754-1.426c4.398-3.296 4.398-3.296 7.871-2.887"/><path fill="#12120f" d="M740.68 524.805l2.463.008 7.732.062q2.632.016 5.266.027 6.43.035 12.859.098v1c-8.25 1.057-16.45 1.29-24.762 1.43-7.758.226-14.227 1.342-21.05 5.133-3.261 3.633-4.625 7.861-6.188 12.437-2-3-2-3-1.918-5.89 1.128-3.822 2.613-5.266 5.606-7.86l2.574-2.297c5.565-3.97 10.834-4.236 17.418-4.148"/><path fill="#973f3f" d="M220.745 527.886h2.099l6.883.016 4.766.005q6.28.006 12.557.024 6.405.014 12.81.02 12.57.016 25.14.049c-2 2-2 2-4.465 2.234l-3.143-.023-3.561-.01-3.87-.04-6.006-.024q-4.22-.023-8.44-.058-7.346-.056-14.692-.088-3.91-.018-7.82-.053c-6.116-.033-11.956.155-18.003 1.062h-3v-2c2.92-1.46 5.483-1.12 8.745-1.114"/><path fill="#102217" d="m728.188 202.813 2.667.019C733 203 733 203 734 204l3.5.5c3.5.5 3.5.5 4.5 1.5l3.125.25c4.89.946 7.08 2.575 10.875 5.75v2l-1.695-.516q-2.598-.784-5.2-1.558a854 854 0 0 1-6.43-1.946c-7.843-2.345-15.553-3.955-23.675-4.98 3.18-1.876 5.513-2.247 9.188-2.187"/><path fill="#181012" d="m274 813 1.879.55c7.97 2.263 15.988 3.902 24.121 5.45l-1 3c-7.318 2.36-16.152-1.206-23-4-2.562-1.687-2.562-1.687-4-3z"/><path fill="#40b5d3" d="M260 219c-1.412 3.46-2.883 4.843-6.062 6.75-6.038 3.84-11.94 8.253-15.938 14.25-2.625 1.188-2.625 1.188-5 2 1.424-8.599 11.72-14.25 18.266-19.117C256.905 219 256.905 219 260 219"/><path fill="#101e16" d="M770.563 217.688c2.323 1.25 3.636 2.433 5.437 4.312l1.875.875c2.93 1.551 4.847 3.733 7.125 6.125l2.313 2.313L789 233l-3 2-1.766-1.723C777.994 227.4 771.552 223.035 764 219c3.68-2.086 3.68-2.086 6.563-1.312"/><path fill="#020303" d="M749 206q3.097 1.148 6.188 2.313l3.48 1.3A51.96 51.96 0 0 1 767 214l-1 3c-3 1-3 1-6.562-.187-3.62-1.91-3.915-2.332-5.438-5.813a198 198 0 0 0-5-3z"/><path fill="#5fb960" d="M815 489h2c-1.37 3.161-1.99 3.993-5 6-2.525.24-2.525.24-5.573.227h-3.457l-3.732-.032-3.82-.008q-5.024-.016-10.047-.05l-10.256-.04Q765.057 495.065 755 495v-1l2.054-.025q10.585-.13 21.17-.292 3.95-.058 7.9-.105l11.356-.164 3.568-.035 3.336-.06 2.927-.04c2.874-.298 5.07-1.085 7.689-2.279z"/><path fill="#0d1c26" d="M296.895 202.77c2.403.263 4.016 1.043 6.105 2.23l-3.078.55c-8.394 1.526-16.674 3.247-24.922 5.45 1.664-3.852 1.664-3.852 4.688-5.187 3.425-.84 6.82-1.334 10.312-1.813 1.858-1.858 4.425-1.18 6.895-1.23"/><path fill="#41aecb" d="M283 210l-3 2-2 2-4.25 1.438c-3.796 1.202-7.216 2.71-10.75 4.562l-3 1-1-3q4.154-1.972 8.313-3.937l2.38-1.131 2.295-1.084 2.11-1c3.465-1.545 5.302-1.965 8.902-.848"/><path fill="#170a0c" d="M331 706c4.9.48 7.862 1.439 12 4 2.289.787 4.588 1.49 6.914 2.156 2.287.925 3.478 2 5.086 3.844-9.113-.99-16.849-3.092-24-9z"/><path fill="#69c86b" d="M817 435h1l1 53-3-1c-.11-17.368-.083-34.657 1-52"/><path fill="#1a1314" d="M495 811h4c-.476 4.377-1.669 6.065-5.062 8.813l-2.223 1.832L490 823l-5-2 1.688-1.187c3.208-2.515 6.469-5.126 8.312-8.813"/><path fill="#0a2026" d="M254 218c2.152.934 2.152.934 4 2l-2.09 1.25A105.95 105.95 0 0 0 238 235l-2-3c1.688-1.865 3.183-3.106 5.375-4.375 2.762-1.571 2.762-1.571 5.125-4.125 2.42-2.42 4.363-4.132 7.5-5.5"/><path fill="#06161f" d="M210 270h1c-.579 6.595-1.797 12.69-3.562 19.063l-.71 2.623q-.856 3.159-1.728 6.314h-1c-1.287-6.698-.718-10.84 2-17q1.111-2.994 2.188-6l1.042-2.875z"/><path fill="#c2ad4b" d="M803 528c5.71-.457 8.551.379 13 4 2.236 3.353 2.173 3.907 1.625 7.688l-.336 2.449L817 544h-1l-1-8-5-1-1-5h-6z"/><path fill="#38a6be" d="M210 276l3 1c-.44 3.517-1.175 6.606-2.5 9.875-1.602 4.047-2.114 7.799-2.5 12.125-2.8-4.723-1.959-8.772-1-14a100.34 100.34 0 0 1 3-9"/><path fill="#cb524f" d="m493 812 1 3c-4.43 3.815-7.293 5.275-13.11 4.879l-2.285-.147-2.355-.17-2.402-.158q-2.925-.195-5.848-.404l1-2 3.105.07q2.042.029 4.082.055l2.042.05c6.177.061 10.026-1.309 14.771-5.175"/><path fill="#161411" d="M542.188 715.375 545 716l-1.75.863c-6.8 3.436-10.939 6.1-14.25 13.137l-3-2c2.802-5.605 9.523-13.41 16.188-12.625"/><path fill="#70d880" d="M781 231c4.003 1.607 6.715 4.418 9.688 7.438l1.51 1.486c2.33 2.343 3.743 3.898 4.802 7.076-3.44-.56-4.767-1.51-6.875-4.25-2.007-2.498-3.966-4.54-6.5-6.5L781 234z"/><path fill="#cb6161" d="M209 532c1.208 3.623.543 4.641-1 8h-2v27h-1q-.149-6.512-.22-13.025-.03-2.214-.082-4.429a437 437 0 0 1-.089-6.374l-.063-3.872c.526-3.821 1.472-4.958 4.454-7.3"/><path fill="#c65357" d="M327 819c-9.018 1.145-17.928 1.095-27 1l-1-2c23.17-1.71 23.17-1.71 28 1"/><path fill="#1e1c13" d="M812 526l4 2 2.688 1.375C821 531 821 531 822 533c0 2 0 2-1.437 3.75L819 538l-1.687-2.75c-2.202-3.095-4.257-5.043-7.313-7.25h2z"/><path fill="#04110e" d="M549.938 200.875l2.65.027L559 201v1l-3.91.367-5.153.508-2.568.238c-5.013.503-9.573 1.338-14.369 2.887v-3c5.772-1.99 10.862-2.245 16.938-2.125"/><path fill="#d4b649" d="m534 815 2.129.5c3.014.525 5.753.563 8.808.5 4.149-.04 7.992.095 12.063 1v1l-3.36.184-4.39.254-2.21.119c-4.103.207-4.103.207-8.096 1.088C537 820 537 820 534 818z"/><path fill="#0a1c22" d="M494 204c2.846 2.189 3.826 4.659 5 8l-2 2a577 577 0 0 1-6.062-6.125c-1.996-2.044-1.996-2.044-4.938-3.875 3.041-.977 4.996-1.163 8 0"/><path fill="#a94b4a" d="m218.57 527.902 2.715.01 2.84.025 2.863.014q3.507.018 7.012.049v2l-2.125-.035c-5.743-.055-11.193.223-16.875 1.035h-3v-2c2.4-1.2 3.894-1.115 6.57-1.098"/><path fill="#0a1a21" d="M272.355 210.86 274 212a701 701 0 0 1-6.312 3.063l-3.551 1.722C261 218 261 218 258 217c1.445-2.89 3.422-3.387 6.313-4.75l2.925-1.422C270 210 270 210 272.355 210.86"/><path fill="#ceb542" d="M808 741h2c2.125 5.625 2.125 5.625 1 9h-2v6h-2z"/><path fill="#7c6b28" d="m685 711 2 1-3.437 1.375c-3.61 1.196-3.61 1.196-4.563 3.625-2.812 1.313-2.812 1.313-6 2-2.2-1.457-2.2-1.457-4-3l2.738-.84 3.574-1.097 3.551-1.09A306 306 0 0 0 685 711"/><path fill="#1b160c" d="M696 702l3 1c-10.374 7.667-10.374 7.667-16 9v-2l1.828-.988 2.422-1.324 2.39-1.301c2.4-1.328 2.4-1.328 4.47-3.117L696 702"/><path fill="#132819" d="M787 235c3.703-.337 5.395-.477 8.375 1.875C797 239 797 239 797 241l-4 1z"/><path fill="#0b201a" d="m532 204 2 3c-5.286 6.429-5.286 6.429-8 9l-1-3c1.978-3.392 4.076-6.368 7-9"/><path fill="#291617" d="M227 778c2.648 2.578 4.944 4.916 7 8l-4 2c-1.5-1.062-1.5-1.062-3-3-.187-3.687-.187-3.687 0-7"/><path fill="#d0bc59" d="M796.063 774.938L799 775c-1.88 3.571-3.17 5.547-7 7v-6c1-1 1-1 4.063-1.062"/><path fill="#7d6825" d="m715 671 3 2c.518 3.195.086 4.82-1.312 7.75C715 683 715 683 712 684z"/><path fill="#ceb444" d="M745 807h11l-3 2v3h-8z"/><path fill="#0f1d25" d="M204 485c4 4.75 4 4.75 4 7l2 1-3 2c-2.062-1.625-2.062-1.625-4-4 .25-3.25.25-3.25 1-6"/><path fill="#060a0f" d="M340 314v3l-7 2v2l-3 1c2.19-5.112 4.232-8 10-8"/><path fill="#112017" d="M816 281h3l2 9-3-1-1 2z"/><path fill="#1c1a13" d="m810 756 4 1c-4 7.714-4 7.714-8 9 1.11-3.487 2.263-6.775 4-10"/><path fill="#ca5456" d="M206 723l.938 1.938c.897 1.998.897 1.998 2.062 3.062l.063 5.563-.028 3.066L209 739c-3.427-5.14-3.102-10.008-3-16"/><path fill="#131e17" d="m758 212 9 3-3 3-8-3z"/><path fill="#cc4a4b" d="M297.688 815.875c3.52.038 6.853.433 10.312 1.125v1q-3.186.33-6.375.625l-3.586.352L295 819l-2-2c1-1 1-1 4.688-1.125"/><path fill="#07110d" d="M822 297h1c.167 4.921.248 8.503-2 13h-1v-11h2z"/><path fill="#14120d" d="m710 681 3 1-5 11c-1.16-3.479-.775-4.342.438-7.687l.87-2.45z"/><path fill="#1b0c0d" d="M312 676c2.59 2.59 2.374 4.027 2.625 7.625l.227 3.04L315 689c-2.971-3.626-3.651-6.291-4-11z"/><path fill="#0a1b25" d="m334 314 2 1-2.437 2.313c-2.731 2.481-2.731 2.481-3.563 5.687l-4-2c2.516-2.606 5.051-4.894 8-7"/><path fill="#ba473f" d="m493 812 1 3c-2.187 2.063-2.187 2.063-5 4-2.812-.25-2.812-.25-5-1 1.983-1.983 3.512-2.794 6-4z"/><path fill="#3bb0ca" d="M205 295h2l1 12h-2c-.96-2.882-1.106-4.699-1.062-7.687l.027-2.45z"/><path fill="#10212d" d="m213 263 2 1-3 10h-1c-.25-7.625-.25-7.625 2-11"/><path fill="#3b9db9" d="M283 210l-3 2-2 2-7-1c7.179-4.786 7.179-4.786 12-3"/><path fill="#2a1414" d="M219 767c2.526 2.363 3.888 3.665 5 7h-5l-2-5h2z"/><path fill="#61c96a" d="m748 211 .375 1.938L749 215l2 1h-7v-3z"/><path fill="#2c7d39" d="m713 343 4 1v10c-2.458-3.687-3.012-6.697-4-11"/><path fill="#0d2530" d="m254 218 4 2-9 5v-4c2.25-1.875 2.25-1.875 5-3"/><path fill="#d1be64" d="m783 793-7 6-2-1 3-1v-4c3.75-1.125 3.75-1.125 6 0"/><path fill="#b3514f" d="M209 532c1.208 3.623.543 4.641-1 8l-3-1c.564-3.27 1.5-4.826 4-7"/><path fill="#0e2734" d="m346 311-6 5v-2l-4-1a328 328 0 0 1 3.875-1.562l2.18-.88C344 310 344 310 346 311"/><path fill="#2b1718" d="M211 751c2.9 2.395 3.502 4.312 4 8l-2-1v-2h-3l-1-3z"/><path fill="#241518" d="m210 530-1 3h-2l-2 5-3-2a376 376 0 0 1 2.875-3l1.617-1.687C208 530 208 530 210 530"/><path fill="#c6b048" d="m791 780 1 2 2 1c-1.687 1.563-1.687 1.563-4 3-2.75-.312-2.75-.312-5-1l1.875-.812c2.425-1.144 2.425-1.144 4.125-4.188"/><path fill="#0d232d" d="M233 235c2.188.313 2.188.313 4 1l-6 5-1-3c1.25-1.562 1.25-1.562 3-3"/><path fill="#6fd47e" d="M770 222c6.875 3.75 6.875 3.75 8 6-5.538-.492-5.538-.492-7.875-3.062L769 223z"/><path fill="#6ed87e" d="M749 212l7 2 1 2-8-1z"/><path fill="#161110" d="m206 739 3 2c.188 2.625.188 2.625 0 5h-2l-2-6z"/><path fill="#16251a" d="m782 230 6 1v3h-3c-1.687-2-1.687-2-3-4"/><path fill="#c8af53" d="m534 815 7 3-1 2-5-1z"/><path fill="#ceb542" d="m800 764 4 2-2 4h-2c-1.125-3.75-1.125-3.75 0-6"/><path fill="#c04c4b" d="m216 760 4 1 1 5-2 1z"/><path fill="#642522" d="M329 706c3.112 1.498 6.053 3.2 9 5-2 1-2 1-4.5.313-2.797-1.469-3.434-2.406-4.5-5.313"/><path fill="#3caac7" d="M296 207c-3 2-3 2-6.187 1.625L287 208c3.35-2.11 5.221-2.05 9-1"/><path fill="#051018" d="M490 202v2l-9-1v-1c5.625-1.125 5.625-1.125 9 0"/></svg>